<svg version="1.1" xmlns="http://www.w3.org/2000/svg" xmlns:xlink="http://www.w3.org/1999/xlink" width="107.15876" height="99.82414" viewBox="0,0,107.15876,99.82414"><defs><radialGradient cx="240.98228" cy="185.62418" r="51.86845" gradientUnits="userSpaceOnUse" id="color-1"><stop offset="0" stop-color="#ffda24"/><stop offset="1" stop-color="#f22c2c"/></radialGradient></defs><g transform="translate(-186.40969,-130.19084)"><g data-paper-data="{&quot;isPaintingLayer&quot;:true}" fill-rule="nonzero" stroke-linejoin="miter" stroke-miterlimit="10" stroke-dasharray="" stroke-dashoffset="0" style="mix-blend-mode: normal"><path d="M187.52057,167.98441c1.74124,-5.01887 31.90053,-9.0665 31.90053,-9.0665c0,0 14.79263,-27.29372 20.06118,-27.29372c6.04907,0 21.7902,25.08627 21.7902,25.08627c0,0 28.82878,5.8943 30.82508,10.36222c2.10145,4.70326 -19.03489,28.23739 -19.03489,28.23739c0,0 8.25742,28.51853 3.35323,32.80969c-4.46212,3.90436 -35.03794,-11.97753 -35.03794,-11.97753c0,0 -30.69233,15.48475 -35.68258,11.32621c-4.37606,-3.64672 1.97747,-33.97014 1.97747,-33.97014c0,0 -21.72828,-20.97132 -20.15228,-25.51389z" fill="url(#color-1)" stroke="#000000" stroke-width="0" stroke-linecap="butt"/><path d="M207.49548,227.12418c0,0 6.66953,-11.3836 11.63152,-17.97652c5.05797,-6.72044 11.33595,-12.88837 11.33595,-12.88837" data-paper-data="{&quot;origPos&quot;:null}" fill="none" stroke="#ffe489" stroke-width="2.5" stroke-linecap="round"/><path d="M251.71325,197.79085c0,0 8.06557,7.55672 11.9326,12.06957c5.10044,5.95224 12.05732,16.26377 12.05732,16.26377" data-paper-data="{&quot;origPos&quot;:null}" fill="none" stroke="#ffe489" stroke-width="2.5" stroke-linecap="round"/><path d="M188.20317,168.12418c0,0 13.83515,2.4469 23.29902,5.23039c3.15463,0.92783 9.03431,4.27942 9.03431,4.27942" data-paper-data="{&quot;origPos&quot;:null}" fill="none" stroke="#ffe489" stroke-width="2.5" stroke-linecap="round"/><path d="M240.20317,132.62418v36.33334" data-paper-data="{&quot;origPos&quot;:null}" fill="none" stroke="#ffe489" stroke-width="2.5" stroke-linecap="round"/><path d="M261.70317,177.41451c0,0 8.11969,-3.12259 11.22105,-4.22308c8.21626,-2.91545 17.77895,-6.06725 17.77895,-6.06725" data-paper-data="{&quot;origPos&quot;:null}" fill="none" stroke="#ffe489" stroke-width="2.5" stroke-linecap="round"/><path d="M187.74146,167.9844c1.74124,-5.01887 31.50484,-9.46219 31.50484,-9.46219c0,0 15.18832,-26.89803 20.45687,-26.89803c6.04907,0 22.24824,25.27333 22.24824,25.27333c0,0 28.37074,5.70724 30.36704,10.17516c2.10145,4.70326 -18.91018,27.44602 -18.91018,27.44602c0,0 8.13272,29.3099 3.22853,33.60106c-4.46212,3.90436 -35.43363,-11.18616 -35.43363,-11.18616c0,0 -30.29664,14.69338 -35.28689,10.53484c-4.37606,-3.64672 1.97747,-33.24112 1.97747,-33.24112c0,0 -21.72829,-21.70033 -20.15229,-26.24291z" data-paper-data="{&quot;origPos&quot;:null}" fill="none" stroke="#000000" stroke-width="2.5" stroke-linecap="butt"/><path d="M232.67909,192.86487c0,0 3.67897,-2.86628 8.21194,-2.58169c4.45026,-0.30405 7.32658,2.49488 7.32658,2.49488" data-paper-data="{&quot;origPos&quot;:null}" fill="none" stroke="#000000" stroke-width="1.5" stroke-linecap="round"/><g data-paper-data="{&quot;origPos&quot;:null}" stroke-linecap="butt"><path d="M238.20317,180.92827c0,5.26971 -3.13401,7.33282 -7,7.33282c-3.86599,0 -7,-4.27196 -7,-9.54167c0,-2.90092 0.94973,-5.49948 2.44847,-7.24948c1.22382,-1.42899 11.55153,4.18862 11.55153,9.45833z" data-paper-data="{&quot;origPos&quot;:null}" fill="#f7f4ae" stroke="#000000" stroke-width="2"/><g data-paper-data="{&quot;origPos&quot;:null}" stroke="none" stroke-width="0"><path d="M234.70317,179.63883c0,2.18704 -1.47994,3.95998 -3.30555,3.95998c-1.82561,0 -3.30555,-1.77294 -3.30555,-3.95998c0,-2.18704 1.47994,-3.95998 3.30555,-3.95998c1.82561,0 3.30555,1.77294 3.30555,3.95998z" data-paper-data="{&quot;origPos&quot;:null}" fill="#000000"/><path d="M232.17539,177.0092c0,1.31794 -0.91408,2.38634 -2.04166,2.38634c-1.12758,0 -2.04166,-1.0684 -2.04166,-2.38634c0,-1.31794 0.91409,-2.38634 2.04166,-2.38634c1.12758,0 2.04166,1.0684 2.04166,2.38634z" data-paper-data="{&quot;origPos&quot;:null}" fill="#ffffff"/><path d="M230.81428,182.71882c0,0.77761 -0.65291,1.40799 -1.45833,1.40799c-0.80542,0 -1.45834,-0.63037 -1.45834,-1.40799c0,-0.77761 0.65292,-1.40799 1.45834,-1.40799c0.80542,0 1.45833,0.63038 1.45833,1.40799z" data-paper-data="{&quot;origPos&quot;:null}" fill="#ffffff"/></g></g><g data-paper-data="{&quot;origPos&quot;:null}" stroke-linecap="butt"><path d="M256.70317,178.21942c0,5.26971 -3.13401,9.54167 -7,9.54167c-3.86599,0 -7,-2.50488 -7,-7.77459c0,-3.06697 9.05089,-11.4519 11.00034,-9.59815c1.81329,1.72428 2.99966,4.58883 2.99966,7.83107z" data-paper-data="{&quot;origPos&quot;:null}" fill="#f7f4ae" stroke="#000000" stroke-width="2"/><g data-paper-data="{&quot;origPos&quot;:null}" stroke="none" stroke-width="0"><path d="M253.20317,179.13883c0,2.18704 -1.47994,3.95998 -3.30555,3.95998c-1.82561,0 -3.30555,-1.77294 -3.30555,-3.95998c0,-2.18704 1.47994,-3.95998 3.30555,-3.95998c1.82561,0 3.30555,1.77294 3.30555,3.95998z" data-paper-data="{&quot;origPos&quot;:null}" fill="#000000"/><path d="M250.67539,176.5092c0,1.31794 -0.91408,2.38634 -2.04166,2.38634c-1.12758,0 -2.04166,-1.0684 -2.04166,-2.38634c0,-1.31794 0.91409,-2.38634 2.04166,-2.38634c1.12758,0 2.04166,1.0684 2.04166,2.38634z" data-paper-data="{&quot;origPos&quot;:null}" fill="#ffffff"/><path d="M249.31428,182.21882c0,0.77761 -0.65291,1.40799 -1.45833,1.40799c-0.80542,0 -1.45834,-0.63037 -1.45834,-1.40799c0,-0.77761 0.65292,-1.40799 1.45834,-1.40799c0.80542,0 1.45833,0.63038 1.45833,1.40799z" data-paper-data="{&quot;origPos&quot;:null}" fill="#ffffff"/></g></g><path d="M239.31276,196.39128l-2.2277,-5.696l7.33586,-0.09439l-1.38115,5.88614z" data-paper-data="{&quot;origPos&quot;:null,&quot;origRot&quot;:0}" fill="#ffffff" stroke="#000000" stroke-width="1" stroke-linecap="butt"/><g data-paper-data="{&quot;origPos&quot;:null}" fill="#8bab45" stroke="#000000" stroke-width="1" stroke-linecap="round"><path d="M246.70789,137.85977c0,0 -2.63421,-2.10445 0.60125,-3.34247c0.04044,-0.14335 2.41259,-3.56084 2.41259,-3.56084c0,0 4.09476,3.91525 2.9412,6.32585c-1.96639,1.08773 -3.2394,1.10595 -3.2394,1.10595" data-paper-data="{&quot;origPos&quot;:null,&quot;origRot&quot;:0}"/><path d="M240.9079,150.16995c0,0 -1.84819,-5.81499 -0.22413,-8.31959c1.43455,-2.21235 3.41727,-4.57561 6.27408,-4.26888c2.4175,0.25956 4.91583,1.72127 5.95129,3.67594c0.71828,1.35591 -0.97353,2.69286 -2.51633,3.30291c-1.13018,0.44689 -5.47107,-0.92363 -5.47107,-0.92363c0,0 5.29476,0.81307 5.5412,-1.03324c0.23361,-1.75022 -1.86561,-3.49521 -3.78711,-3.04549c-1.87481,0.43879 -2.98756,1.64989 -3.87759,3.17763c-2.18482,3.75029 2.4253,7.80078 2.4253,7.80078" data-paper-data="{&quot;origPos&quot;:null,&quot;origRot&quot;:0}"/></g></g></g></svg>