<svg version="1.1" xmlns="http://www.w3.org/2000/svg" xmlns:xlink="http://www.w3.org/1999/xlink" width="21.8261" height="53.57037" viewBox="0,0,21.8261,53.57037"><defs><linearGradient x1="243.16667" y1="209.37217" x2="243.16667" y2="148.03884" gradientUnits="userSpaceOnUse" id="color-1"><stop offset="0" stop-color="#c6efff"/><stop offset="1" stop-color="#3478bd"/></linearGradient></defs><g transform="translate(-230.00806,-164.50955)"><g data-paper-data="{&quot;isPaintingLayer&quot;:true}" fill="none" fill-rule="nonzero" stroke="#000000" stroke-width="none" stroke-linecap="none" stroke-linejoin="miter" stroke-miterlimit="10" stroke-dasharray="" stroke-dashoffset="0" font-family="none" font-weight="none" font-size="none" text-anchor="none" style="mix-blend-mode: normal"><path d="M240.28872,170.66667l7.15957,1.16264l2.21838,10.8762l-7,33.33333l-5.33334,-9l-4,-30.66666z" data-paper-data="{&quot;origPos&quot;:null,&quot;index&quot;:null}" fill="url(#color-1)" stroke-width="1.5" stroke-linecap="butt"/><path d="M233.66667,179.66667l-2.66667,-4.33333l4.97213,-3.84625l4.02793,-5.82158l3.57353,3.47893l2.99605,-1.60545l3.76368,4.79435l0.66667,10.33333l-3.60848,-1.88l-3.01171,-7.01111c0,0 -2.37268,-0.28143 -5.88178,1.54148c-2.01559,1.04706 -4.83136,4.34963 -4.83136,4.34963z" data-paper-data="{&quot;origPos&quot;:null}" fill="#ffffff" stroke-width="1.5" stroke-linecap="butt"/><path d="M238.66667,207.66667l2.66667,-5l1.66667,-12l-3.33333,-6.66667l2,-6.33333l-6.33333,5" data-paper-data="{&quot;origPos&quot;:null}" fill="none" stroke-width="1" stroke-linecap="round"/><path d="M242,202.33333l2,3.66667" data-paper-data="{&quot;origPos&quot;:null}" fill="none" stroke-width="1" stroke-linecap="round"/><path d="M240,185.66667l-1.33333,5.66667l-1.33333,6.33333" data-paper-data="{&quot;origPos&quot;:null}" fill="none" stroke-width="1" stroke-linecap="round"/><path d="M241,180.33333l5,4.66667l1.33333,6.66667" data-paper-data="{&quot;origPos&quot;:null}" fill="none" stroke-width="1" stroke-linecap="round"/></g></g></svg>