<svg xmlns="http://www.w3.org/2000/svg" xmlns:xlink="http://www.w3.org/1999/xlink" viewBox="0 0 494.91 149.28"><defs><style>.cls-1{font-size:120px;font-family:Oetztype;}.cls-1,.cls-7{fill:#093;stroke:#005133;stroke-width:3px;}.cls-1,.cls-3,.cls-4,.cls-5,.cls-6,.cls-7{stroke-miterlimit:10;}.cls-2{font-size:72px;}.cls-3{fill:#8c8263;}.cls-3,.cls-4,.cls-5,.cls-6{stroke:#000;}.cls-3,.cls-5{stroke-width:2px;}.cls-4{fill:none;stroke-width:0.5px;}.cls-5{fill:url(#linear-gradient);}.cls-6{fill:#009245;}</style><linearGradient id="linear-gradient" x1="443.72" y1="73.58" x2="493.76" y2="73.58" gradientUnits="userSpaceOnUse"><stop offset="0" stop-color="#b3b3b3"/><stop offset="0.19" stop-color="#f2f2f2"/><stop offset="1" stop-color="#b3b3b3"/></linearGradient></defs><g id="Layer_2" data-name="Layer 2"><g id="Layer_1-2" data-name="Layer 1"><text class="cls-1" transform="translate(1.5 106.5)">C<tspan class="cls-2" x="85.08" y="0">USTOM</tspan></text><polygon class="cls-3" points="435.76 107.08 378.26 107.08 384.01 20.58 430.01 20.58 435.76 107.08"/><polygon class="cls-3" points="448.76 34.58 438.26 34.58 427.76 34.58 417.26 34.58 406.76 34.58 396.26 34.58 385.76 34.58 375.26 34.58 364.76 34.58 365.29 31.21 365.81 27.83 366.34 24.46 366.86 21.08 367.39 17.71 367.91 14.33 368.44 10.96 368.96 7.58 378.41 7.58 381.31 15.58 394.04 15.58 396.58 7.58 416.21 7.58 419.49 15.58 429.67 15.58 435.11 7.58 444.56 7.58 445.09 10.96 445.61 14.33 446.14 17.71 446.66 21.08 447.19 24.46 447.71 27.83 448.24 31.21 448.76 34.58"/><line class="cls-4" x1="379.76" y1="90.58" x2="434.76" y2="90.58"/><line class="cls-4" x1="380.76" y1="73.58" x2="433.76" y2="73.58"/><line class="cls-4" x1="381.76" y1="58.58" x2="432.76" y2="58.58"/><line class="cls-4" x1="382.76" y1="43.58" x2="431.76" y2="43.58"/><line class="cls-4" x1="406.76" y1="43.58" x2="406.76" y2="33.58"/><line class="cls-4" x1="406.76" y1="58.58" x2="406.76" y2="73.58"/><line class="cls-4" x1="406.76" y1="90.58" x2="406.76" y2="106.58"/><line class="cls-4" x1="423.76" y1="73.58" x2="424.76" y2="90.58"/><line class="cls-4" x1="391.76" y1="73.58" x2="389.76" y2="90.58"/><line class="cls-4" x1="393.76" y1="43.58" x2="392.76" y2="58.58"/><line class="cls-4" x1="420.76" y1="43.58" x2="421.76" y2="58.58"/><path class="cls-5" d="M493.76,56.58c-.85,6.25-4.22,24.73-20,39a60.84,60.84,0,0,1-20,12,162,162,0,0,1-10-60,17,17,0,0,0,18-8,29.18,29.18,0,0,0,3.1,5.32,28.5,28.5,0,0,0,6.9,6.68C478.47,56.17,491.19,56.56,493.76,56.58Z"/><path class="cls-6" d="M456.26,96.08a118.2,118.2,0,0,1-8-40,78.24,78.24,0,0,0,13,5,79.16,79.16,0,0,0,19,3,51.54,51.54,0,0,1-24,32Z"/><rect class="cls-7" x="97.26" y="20.08" width="251" height="16"/></g></g></svg>