<svg version="1.1" xmlns="http://www.w3.org/2000/svg" xmlns:xlink="http://www.w3.org/1999/xlink" width="185.36064" height="198.18026" viewBox="0,0,185.36064,198.18026"><defs><linearGradient x1="219.8684" y1="18.89954" x2="219.8684" y2="86.23261" gradientUnits="userSpaceOnUse" id="color-1"><stop offset="0" stop-color="#d3ffff"/><stop offset="1" stop-color="#6ff5ff"/></linearGradient></defs><g transform="translate(-125.93087,-16.93729)"><g data-paper-data="{&quot;isPaintingLayer&quot;:true}" fill-rule="nonzero" stroke-linejoin="miter" stroke-miterlimit="10" stroke-dasharray="" stroke-dashoffset="0" style="mix-blend-mode: normal"><g data-paper-data="{&quot;origPos&quot;:null,&quot;index&quot;:null}" stroke="#000000" stroke-width="2.5"><path d="M258.49831,138.17902c0,0 0.83772,-9.12578 17.4346,6.76584c3.43138,19.07991 -2.9688,30.9166 -2.9688,30.9166c0,0 -7.10538,-5.00254 -16.09487,-7.33328c-9.04761,-15.19825 -7.75823,-23.66316 -7.75823,-23.66316z" data-paper-data="{&quot;origPos&quot;:null}" fill="#2bd600" stroke-linecap="butt"/><path d="M263.22237,156.5c0,0 3.76355,1.58621 4.89231,3.56154c1.21281,2.12243 1.10769,6.93846 1.10769,6.93846" data-paper-data="{&quot;origPos&quot;:null}" fill="#0091c7" stroke-linecap="round"/></g><g data-paper-data="{&quot;origPos&quot;:null,&quot;index&quot;:null}" fill="#2bd600" stroke="#000000" stroke-width="2.5"><path d="M248.99831,75.67902c0,0 -3.66228,-15.12578 8.4346,-19.23415c17.43138,-5.92009 25.74517,-20.29296 25.74517,-20.29296c0,0 16.68065,35.70702 12.69116,47.37628c-4.54761,13.30176 -23.75823,18.83683 -23.75823,18.83683z" data-paper-data="{&quot;origPos&quot;:null}" stroke-linecap="butt"/><path d="M282.22237,53.5c0,0 -2.83908,10.53866 -5.93634,15.04376c-3.34208,4.8612 -10.56366,8.95624 -10.56366,8.95624" data-paper-data="{&quot;origPos&quot;:null}" stroke-linecap="round"/></g><g data-paper-data="{&quot;origPos&quot;:null,&quot;index&quot;:null}" stroke="#000000" stroke-width="2.5"><path d="M271.46895,131.15916c0,0 -4.98483,-9.10694 15.52452,-2.15898c3.93808,7.40897 21.87503,12.91009 21.87503,12.91009c0,0 -16.68557,15.70866 -25.86639,14.14067c-21.12871,-5.55353 -18.81853,-9.73549 -18.81853,-9.73549z" data-paper-data="{&quot;origPos&quot;:null,&quot;origRot&quot;:0}" fill="#2bd600" stroke-linecap="butt"/><path d="M294.72237,143c0,0 -5.49185,1.33848 -9.00691,1.23509c-3.1194,-0.09175 -7.99309,-1.73509 -7.99309,-1.73509" data-paper-data="{&quot;origPos&quot;:null}" fill="#0091c7" stroke-linecap="round"/></g><g data-paper-data="{&quot;origPos&quot;:null,&quot;index&quot;:null}" stroke="#000000" stroke-width="2.5"><path d="M270.99831,99.67902c0,0 7.33772,-12.12578 17.4346,-6.23416c9.23537,9.17478 19.5312,12.9166 19.5312,12.9166c0,0 -6.60538,10.99746 -14.09487,19.66672c-12.54761,7.80176 -18.25823,1.83683 -18.25823,1.83683z" data-paper-data="{&quot;origPos&quot;:null}" fill="#2bd600" stroke-linecap="butt"/><path d="M294.72237,108.5c0,0 -3.64747,4.07527 -6.30205,4.7635c-2.61396,0.6777 -7.19795,-1.2635 -7.19795,-1.2635" data-paper-data="{&quot;origPos&quot;:null}" fill="#0091c7" stroke-linecap="round"/></g><g data-paper-data="{&quot;origPos&quot;:null,&quot;index&quot;:null}" stroke="#000000" stroke-width="2.5"><path d="M232.99831,63.17902c0,0 -2.16228,-1.62578 1.4346,-15.23416c6.93138,-9.92009 6.03119,-17.5834 6.03119,-17.5834c0,0 16.67349,17.38178 17.40513,26.66672c-4.54761,13.30176 -11.25823,14.33684 -11.25823,14.33684z" data-paper-data="{&quot;origPos&quot;:null}" fill="#2bd600" stroke-linecap="butt"/><path d="M243.72237,61c0,0 -1.18698,-5.7963 -1.30666,-9.50623c-0.07546,-2.33915 0.80666,-5.99377 0.80666,-5.99377" data-paper-data="{&quot;origPos&quot;:null}" fill="#0091c7" stroke-linecap="round"/></g><g data-paper-data="{&quot;origPos&quot;:null}" fill="#2bd600" stroke="#000000" stroke-width="2.5"><path d="M188.11137,145.86502c0,0 1.28938,8.46492 -7.75823,23.66316c-8.9895,2.33074 -16.09487,7.33328 -16.09487,7.33328c0,0 -6.40018,-11.83668 -2.96881,-30.91659c16.59688,-15.89163 17.4346,-6.76584 17.4346,-6.76584z" data-paper-data="{&quot;origPos&quot;:null}" stroke-linecap="butt"/><path d="M168,168c0,0 -0.10513,-4.81603 1.10769,-6.93846c1.12876,-1.97533 4.89231,-3.56154 4.89231,-3.56154" data-paper-data="{&quot;origPos&quot;:null}" stroke-linecap="round"/></g><g fill="#2bd600" stroke="#000000" stroke-width="2.5"><path d="M165.11137,104.16167c0,0 -19.21062,-5.53508 -23.75823,-18.83683c-3.9895,-11.66926 11.1191,-48.16231 11.1191,-48.16231c0,0 9.88585,15.1589 27.31722,21.079c12.09688,4.10838 8.4346,19.23415 8.4346,19.23415z" data-paper-data="{&quot;origPos&quot;:null}" stroke-linecap="butt"/><path d="M171.5,79.29665c0,0 -7.22158,-4.09504 -10.56366,-8.95624c-3.09726,-4.5051 -5.93634,-15.04376 -5.93634,-15.04376" data-paper-data="{&quot;origPos&quot;:null}" stroke-linecap="round"/></g><g data-paper-data="{&quot;origPos&quot;:null}" stroke="#000000" stroke-width="2.5"><path d="M173.03879,147.31545c0,0 2.31017,4.18196 -18.81853,9.73549c-9.18082,1.56799 -25.86638,-14.14067 -25.86638,-14.14067c0,0 17.93695,-5.50112 21.87503,-12.91009c20.50936,-6.94796 15.52453,2.15898 15.52453,2.15898z" data-paper-data="{&quot;origPos&quot;:null,&quot;origRot&quot;:0}" fill="#2bd600" stroke-linecap="butt"/><path d="M159.5,143.5c0,0 -4.87368,1.64334 -7.99309,1.73509c-3.51506,0.10339 -9.00691,-1.23509 -9.00691,-1.23509" data-paper-data="{&quot;origPos&quot;:null}" fill="#0091c7" stroke-linecap="round"/></g><g fill="#2bd600" stroke="#000000" stroke-width="2.5"><path d="M161.61137,129.66167c0,0 -5.71062,5.96492 -18.25823,-1.83683c-7.4895,-8.66926 -14.09487,-19.66672 -14.09487,-19.66672c0,0 10.29583,-3.74182 19.53119,-12.91659c10.09688,-5.89163 17.4346,6.23416 17.4346,6.23416z" data-paper-data="{&quot;origPos&quot;:null}" stroke-linecap="butt"/><path d="M156,113.79665c0,0 -4.58399,1.9412 -7.19795,1.2635c-2.65459,-0.68823 -6.30205,-4.7635 -6.30205,-4.7635" data-paper-data="{&quot;origPos&quot;:null}" stroke-linecap="round"/></g><g data-paper-data="{&quot;origPos&quot;:null}" stroke="#000000" stroke-width="2.5"><path d="M190.61137,72.36502c0,0 -6.71062,-1.03508 -11.25823,-14.33683c0.73164,-9.28494 17.40513,-26.66672 17.40513,-26.66672c0,0 -0.90018,7.66331 6.03119,17.58341c3.59688,13.60838 1.4346,15.23415 1.4346,15.23415z" data-paper-data="{&quot;origPos&quot;:null}" fill="#2bd600" stroke-linecap="butt"/><path d="M194,46.5c0,0 0.88212,3.65462 0.80666,5.99377c-0.11968,3.70993 -1.30666,9.50623 -1.30666,9.50623" data-paper-data="{&quot;origPos&quot;:null}" fill="#0091c7" stroke-linecap="round"/></g><path d="M244.05162,172.18673c0,0 1.67874,14.49387 4.68425,22.31828c1.07555,2.80004 4.49921,1.38412 5.45209,4.22459c1.99177,5.93736 2.34537,1.89477 -0.97571,7.25942c-3.80008,6.13839 -24.84668,7.37853 -32.30015,7.37853c-6.93818,0 -29.99439,-1.39965 -33.61944,-7.06309c-3.29427,-5.14665 -2.84983,-1.37701 -1.44231,-7.26074c0.75017,-3.13587 5.05371,-1.30106 6.05111,-4.37314c2.56908,-7.91295 3.39189,-23.67058 3.39189,-23.67058" data-paper-data="{&quot;origPos&quot;:null}" fill="#3effff" stroke="#000000" stroke-width="3.5" stroke-linecap="round"/><path d="M288,115.5c0,36.17465 -30.22078,65.5 -67.5,65.5c-37.27922,0 -67.5,-29.32535 -67.5,-65.5c0,-36.17465 30.22078,-65.5 67.5,-65.5c37.27922,0 67.5,29.32535 67.5,65.5z" data-paper-data="{&quot;origPos&quot;:null}" fill="#3effff" stroke="#000000" stroke-width="3.5" stroke-linecap="butt"/><g stroke-width="0" stroke-linecap="butt"><path d="M232,146.5c0,-6.07513 4.92487,-11 11,-11c6.07513,0 11,4.92487 11,11c0,6.07513 -4.92487,11 -11,11c-6.07513,0 -11,-4.92487 -11,-11z" data-paper-data="{&quot;origPos&quot;:null}" fill="#000000" stroke="#000000"/><path d="M240.5,143.25c0,-2.62336 2.12664,-4.75 4.75,-4.75c2.62336,0 4.75,2.12664 4.75,4.75c0,2.62336 -2.12664,4.75 -4.75,4.75c-2.62336,0 -4.75,-2.12664 -4.75,-4.75z" data-paper-data="{&quot;origPos&quot;:null}" fill="#ffffff" stroke="none"/></g><g data-paper-data="{&quot;origPos&quot;:null}" stroke-width="0" stroke-linecap="butt"><path d="M187.5,146c0,-6.07513 4.92487,-11 11,-11c6.07513,0 11,4.92487 11,11c0,6.07513 -4.92487,11 -11,11c-6.07513,0 -11,-4.92487 -11,-11z" data-paper-data="{&quot;origPos&quot;:null}" fill="#000000" stroke="#000000"/><path d="M196,142.75c0,-2.62336 2.12664,-4.75 4.75,-4.75c2.62336,0 4.75,2.12664 4.75,4.75c0,2.62336 -2.12664,4.75 -4.75,4.75c-2.62336,0 -4.75,-2.12664 -4.75,-4.75z" data-paper-data="{&quot;origPos&quot;:null}" fill="#ffffff" stroke="none"/></g><path d="M199.5,189.74526l-1,-11l7.93386,0.42149l13.56614,-1.42149l13.60593,1.28278l7.89407,-0.28278l-1,11z" data-paper-data="{&quot;origPos&quot;:null}" fill="#3effff" stroke="none" stroke-width="0" stroke-linecap="butt"/><path d="M209.51194,80.24168l-14.33972,-31.0694l25.49284,-30.27274l23.89954,29.47609l-15.13637,31.0694c0,0 -6.93247,6.65051 -10.30811,6.78553c-3.25902,0.13036 -9.60817,-5.98888 -9.60817,-5.98888z" fill="url(#color-1)" stroke="#000000" stroke-width="2.5" stroke-linecap="butt"/><path d="M203.93538,49.17228l14.33972,6.37321l17.52633,-6.37321" fill="none" stroke="#000000" stroke-width="1.5" stroke-linecap="round"/><path d="M219.07175,53.95219v24.69619" fill="none" stroke="#000000" stroke-width="1.5" stroke-linecap="round"/></g></g></svg>