<svg version="1.1" xmlns="http://www.w3.org/2000/svg" xmlns:xlink="http://www.w3.org/1999/xlink" width="73.9615" height="85.10964" viewBox="0,0,73.9615,85.10964"><defs><radialGradient cx="240.15833" cy="144.0629" r="10" gradientUnits="userSpaceOnUse" id="color-1"><stop offset="0" stop-color="#cdbc00"/><stop offset="1" stop-color="#6e5b03"/></radialGradient><linearGradient x1="240.06272" y1="151.94798" x2="240.06272" y2="161.4629" gradientUnits="userSpaceOnUse" id="color-2"><stop offset="0" stop-color="#cdbc00"/><stop offset="1" stop-color="#645103"/></linearGradient><linearGradient x1="242.46278" y1="150.593" x2="245.28845" y2="159.52634" gradientUnits="userSpaceOnUse" id="color-3"><stop offset="0" stop-color="#cdbc00"/><stop offset="1" stop-color="#645103"/></linearGradient><linearGradient x1="244.8913" y1="150.42815" x2="251.61535" y2="155.88522" gradientUnits="userSpaceOnUse" id="color-4"><stop offset="0" stop-color="#cdbc00"/><stop offset="1" stop-color="#645103"/></linearGradient><linearGradient x1="246.44824" y1="146.98719" x2="254.43612" y2="149.17693" gradientUnits="userSpaceOnUse" id="color-5"><stop offset="0" stop-color="#cdbc00"/><stop offset="1" stop-color="#645103"/></linearGradient><linearGradient x1="247.25044" y1="143.36934" x2="255.45797" y2="143.49131" gradientUnits="userSpaceOnUse" id="color-6"><stop offset="0" stop-color="#cdbc00"/><stop offset="1" stop-color="#645103"/></linearGradient><linearGradient x1="247.37968" y1="140.61944" x2="254.5991" y2="136.09196" gradientUnits="userSpaceOnUse" id="color-7"><stop offset="0" stop-color="#cdbc00"/><stop offset="1" stop-color="#645103"/></linearGradient><linearGradient x1="245.68481" y1="137.86882" x2="251.18665" y2="130.80777" gradientUnits="userSpaceOnUse" id="color-8"><stop offset="0" stop-color="#cdbc00"/><stop offset="1" stop-color="#645103"/></linearGradient><linearGradient x1="245.25562" y1="127.88491" x2="242.86042" y2="136.98571" gradientUnits="userSpaceOnUse" id="color-9"><stop offset="0" stop-color="#cdbc00"/><stop offset="1" stop-color="#645103"/></linearGradient><linearGradient x1="239.95368" y1="136.9164" x2="239.95368" y2="127.40148" gradientUnits="userSpaceOnUse" id="color-10"><stop offset="0" stop-color="#cdbc00"/><stop offset="1" stop-color="#645103"/></linearGradient><linearGradient x1="237.35361" y1="137.47138" x2="234.52794" y2="128.53804" gradientUnits="userSpaceOnUse" id="color-11"><stop offset="0" stop-color="#cdbc00"/><stop offset="1" stop-color="#645103"/></linearGradient><linearGradient x1="235.38609" y1="138.24564" x2="229.19929" y2="131.99263" gradientUnits="userSpaceOnUse" id="color-12"><stop offset="0" stop-color="#cdbc00"/><stop offset="1" stop-color="#645103"/></linearGradient><linearGradient x1="233.12023" y1="141.2915" x2="225.6282" y2="137.40448" gradientUnits="userSpaceOnUse" id="color-13"><stop offset="0" stop-color="#cdbc00"/><stop offset="1" stop-color="#645103"/></linearGradient><linearGradient x1="232.56596" y1="144.69503" x2="224.35843" y2="144.57307" gradientUnits="userSpaceOnUse" id="color-14"><stop offset="0" stop-color="#cdbc00"/><stop offset="1" stop-color="#645103"/></linearGradient><linearGradient x1="232.43671" y1="147.44493" x2="225.21729" y2="151.97242" gradientUnits="userSpaceOnUse" id="color-15"><stop offset="0" stop-color="#cdbc00"/><stop offset="1" stop-color="#645103"/></linearGradient><linearGradient x1="234.13159" y1="150.19556" x2="228.62974" y2="157.25661" gradientUnits="userSpaceOnUse" id="color-16"><stop offset="0" stop-color="#cdbc00"/><stop offset="1" stop-color="#645103"/></linearGradient><linearGradient x1="234.56077" y1="160.17947" x2="236.95598" y2="151.07867" gradientUnits="userSpaceOnUse" id="color-17"><stop offset="0" stop-color="#cdbc00"/><stop offset="1" stop-color="#645103"/></linearGradient></defs><g transform="translate(-202.77323,-126.90148)"><g data-paper-data="{&quot;isPaintingLayer&quot;:true}" fill-rule="nonzero" stroke-linecap="butt" stroke-linejoin="miter" stroke-miterlimit="10" stroke-dasharray="" stroke-dashoffset="0" style="mix-blend-mode: normal"><path d="M250.75221,154.72956c3.37545,0 16.96944,0.46152 16.96944,0.46152c0,0 1.83056,10.57304 3.83056,14.13848c2.70193,4.81678 -4.6471,6.6 -12.6,6.6c-7.9529,0 -14.4,-4.47716 -14.4,-10c0,-5.52284 -1.7529,-11.2 6.2,-11.2z" data-paper-data="{&quot;origPos&quot;:null,&quot;index&quot;:null}" fill="#42a551" stroke="#000000" stroke-width="1"/><path d="M236.75833,166.32956c0,5.52284 -6.4471,10 -14.4,10c-7.9529,0 -15.30193,-1.78322 -12.6,-6.6c2,-3.56544 3.83056,-14.13848 3.83056,-14.13848c0,0 13.59399,-0.46152 16.96944,-0.46152c7.9529,0 6.2,5.67715 6.2,11.2z" data-paper-data="{&quot;origPos&quot;:null}" fill="#42a551" stroke="#000000" stroke-width="1"/><path d="M203.52782,169.85586c0,0 3.99177,1.20704 7.02182,2.40704c3.03006,1.2 8,11.89776 8,20.9c0,9.00224 2.63005,6.7 0.2,6.7c-2.43006,0 -12.6,-3.49776 -12.6,-12.5c0,-9.00224 -2.62182,-17.50704 -2.62182,-17.50704z" data-paper-data="{&quot;origPos&quot;:null,&quot;index&quot;:null}" fill="#42a551" stroke="#000000" stroke-width="1"/><path d="M273.35832,187.3629c0,9.00224 -10.16994,12.5 -12.6,12.5c-2.43005,0 0.2,2.30224 0.2,-6.7c0,-9.00224 4.96994,-19.7 8,-20.9c3.03006,-1.2 7.02182,-2.40704 7.02182,-2.40704c0,0 -2.62182,8.5048 -2.62182,17.50704z" data-paper-data="{&quot;origPos&quot;:null}" fill="#42a551" stroke="#000000" stroke-width="1"/><path d="M227.15833,198.72956v-24.8l22.84058,-2.75719l1.55942,27.55719z" data-paper-data="{&quot;origPos&quot;:null}" fill="#85b448" stroke="#000000" stroke-width="1"/><path d="M229.35833,175.12956v-11.8h22v11.8z" data-paper-data="{&quot;origPos&quot;:null}" fill="#85b448" stroke="#000000" stroke-width="1"/><path d="M239.95833,176.62956c0,0 -5.44703,1.39619 -7.64633,2.83908c-2.02188,1.32649 -4.53549,3.46092 -6.95367,3.46092c-5.30193,0 -9.6,-2.91015 -9.6,-6.5c0,-3.58985 7.09806,-10.9 12.4,-10.9c5.30194,0 11.8,11.1 11.8,11.1z" data-paper-data="{&quot;origPos&quot;:null}" fill="#85b448" stroke="#000000" stroke-width="1"/><path d="M255.75833,169.12956c4.63919,0 8.4,3.6265 8.4,8.1c0,4.4735 -8.36081,11.5 -13,11.5c-5.16868,0 -2.34658,-6.74955 -5.93795,-10.46671c-2.05412,-2.12607 -5.06205,-6.23329 -5.06205,-6.23329c0,0 10.96081,-2.9 15.6,-2.9z" data-paper-data="{&quot;origPos&quot;:null}" fill="#95ca51" stroke="#000000" stroke-width="1"/><path d="M237.15833,166.52956c0,3.03382 -0.65566,7.63386 -0.65566,7.63386c0,0 -4.87602,-2.43386 -8.24434,-2.43386c-6.7931,0 -11.7,1.23919 -11.7,-3.4c0,-4.63919 5.5069,-8.4 12.3,-8.4c6.7931,0 8.3,1.96081 8.3,6.6z" data-paper-data="{&quot;origPos&quot;:null}" fill="#95ca51" stroke="#000000" stroke-width="1"/><path d="M236.35833,194.02956c0,7.01402 0.09899,7.5 -5.7,7.5c-5.79899,0 -10.5,-5.68599 -10.5,-12.7c0,-4.59053 3.37639,-4.27192 7.44845,-6.39118c2.48958,-1.29567 7.45155,-4.70882 7.45155,-4.70882c0,0 -0.48149,3.17114 0.86075,4.83174c1.99938,2.4736 0.43926,4.45425 0.43926,11.46827z" data-paper-data="{&quot;origPos&quot;:null}" fill="#95ca51" stroke="#000000" stroke-width="1"/><path d="M262.33333,198.33334c-4.50729,3.79324 -11.28764,9.66666 -22.33333,9.66666c-2.6679,0 -9.731,-1.96019 -12.27743,-2.75603c-4.41482,-1.37976 -12.03738,-12.49953 -12.03738,-12.49953c0,0 9.25207,-0.53508 14.44815,-1.87777c3.66666,-3.89103 19.82097,-12.86667 30.86667,-12.86667l8.11551,-2.07049c0,0 0.21783,16.5128 -6.78217,22.40383z" data-paper-data="{&quot;origPos&quot;:null}" fill="#a0d856" stroke="#000000" stroke-width="1"/><path d="M268,181.83334c-2.25725,1.23152 -4.39024,-1.23219 -4.39024,-1.23219c0,0 -1.8632,1.94512 -3.26909,2.12334c-1.43493,0.18191 -4.01017,-1.20056 -4.01017,-1.20056c0,0 -1.57387,1.46165 -3.00793,1.75713c-1.36172,0.28057 -4.1559,-0.28107 -4.1559,-0.28107c0,0 -1.93397,1.47325 -3.38515,1.9895c-1.35557,0.48224 -3.80681,0.569 -3.80681,0.569c0,0 -0.9192,3.14268 -2.23175,4.20263c-1.55883,1.25883 -7.27629,-0.3278 -7.27629,-0.3278c0,0 5.37855,-3.6678 9.30379,-5.88228c3.80286,-2.14545 5.69657,-4.55105 10.06288,-4.55105l17.52011,-2.46207c0,0 1.97989,3.4768 -1.35345,5.29541z" data-paper-data="{&quot;origPos&quot;:null}" fill="#bdff66" stroke="#000000" stroke-width="1"/><path d="M235.6,156.6c6.75937,-0.47343 1.88825,0.17141 9.73334,0.26667c7.11683,1.22565 8.69131,1.42594 12.47226,3.24095c3.98546,0.89499 7.08788,5.33879 10.18805,10.4866c3.63913,8.23396 0.75821,15.95021 0.75821,15.95021c0,0 -5.61459,-9.73507 -15.15185,-13.67777c-9.53726,-3.94269 -6.4457,-2.86667 -11.2,-4.66667c-5.05363,-1.91332 -19.48449,-7.93716 -19.48449,-7.93716c0,0 -0.04885,-0.68721 12.68449,-3.66284z" data-paper-data="{&quot;origPos&quot;:null}" fill="#a0d856" stroke="#000000" stroke-width="1"/><path d="M253.35833,170.62956c0,0 2.83472,-0.58788 3.497,0.18793c0.70364,0.82426 1.203,4.31207 1.203,4.31207l-27.1,-12.1c0,0 2.64608,-0.70214 3.44365,-0.76751c1.58304,-0.12976 3.85636,1.26751 3.85636,1.26751c0,0 3.24705,-0.90432 3.66119,-0.71508c3.24746,1.48394 2.51638,3.98298 2.51638,3.98298c0,0 5.03416,-0.65326 6.08011,-0.17531c1.03119,0.47121 2.84231,4.00741 2.84231,4.00741z" data-paper-data="{&quot;origPos&quot;:null}" fill="#bdff66" stroke="#000000" stroke-width="1"/><path d="M223,203c-2.84063,-2.87343 2.28825,3.17141 -4.66666,-4.33334c-3.68317,-3.97435 -4.90869,-0.97406 -7.72774,-15.15905c-1.01454,-5.10501 1.88788,-14.66121 5.38805,-18.51339c5.23913,-5.76604 15.75821,-6.44979 15.75821,-6.44979c0,0 -7.81459,13.66493 -6.75185,20.12223c0,4.77563 -0.04569,5.33334 0,9.33334c0.04883,4.2748 5.91551,18.26284 5.91551,18.26284c0,0 -0.24885,0.51279 -7.91551,-3.26284z" data-paper-data="{&quot;origPos&quot;:null}" fill="#a0d856" stroke="#000000" stroke-width="1"/><path d="M225.8,174.5c0,7.27175 -0.1,17.36667 -0.1,17.36667c0,0 -2.43831,-1.27583 -2.97488,-2.60446c-0.31659,-0.78393 0.78878,-2.80872 0.78878,-2.80872c0,0 -1.14956,-2.46701 -1.24528,-3.918c-0.08311,-1.25978 0.78705,-3.02804 0.78705,-3.02804c0,0 -2.12982,-0.66276 -2.34092,-1.47098c-0.27894,-1.06794 1.08526,-3.33647 1.08526,-3.33647c0,0 -1.3914,-2.33705 -1.00187,-3.96089c0.27364,-1.14072 2.70117,-3.12295 2.70117,-3.12295c0,0 -1.12341,-2.10404 -0.56235,-3.1947c0.51947,-1.00983 3.33109,-2.18756 3.33109,-2.18756c0,0 1.1112,-2.58515 2.07844,-3.2157c1.57867,-1.02914 4.44514,-1.03705 4.44514,-1.03705c0,0 -6.99162,9.24711 -6.99162,16.51886z" data-paper-data="{&quot;origPos&quot;:null}" fill="#bdff66" stroke="#000000" stroke-width="1"/><path d="M236.55833,179.8629l2.4,-12.8c0,0 -1.73372,-18.48396 0.80525,-18.26041c2.11307,0.18605 1.79475,18.26041 1.79475,18.26041l2.8,12.8c0,0 -2.68285,2.4 -4.4,2.4c-1.3269,0 -3.4,-2.4 -3.4,-2.4z" data-paper-data="{&quot;origPos&quot;:null}" fill="#42a551" stroke="#000000" stroke-width="1"/><path d="M250.15833,144.0629c0,5.30193 -4.47716,9.6 -10,9.6c-5.52284,0 -10,-4.29807 -10,-9.6c0,-5.30193 4.47716,-9.6 10,-9.6c5.52284,0 10,4.29807 10,9.6z" data-paper-data="{&quot;origPos&quot;:null}" fill="url(#color-1)" stroke="#000000" stroke-width="1"/><path d="M242.25157,156.70544c0,2.62747 -0.97998,4.75746 -2.18885,4.75746c-1.20887,0 -2.18885,-2.12999 -2.18885,-4.75746c0,-2.62747 0.97998,-4.75746 2.18885,-4.75746c1.20887,0 2.18885,2.12999 2.18885,4.75746z" data-paper-data="{&quot;origPos&quot;:null,&quot;origRot&quot;:0}" fill="url(#color-2)" stroke="#000000" stroke-width="1"/><path d="M245.93068,154.1862c0.78029,2.46687 0.49276,4.85774 -0.64223,5.34015c-1.13499,0.48241 -2.68761,-1.12633 -3.46791,-3.59321c-0.78029,-2.46687 -0.49276,-4.85773 0.64223,-5.34014c1.13499,-0.4824 2.68761,1.12633 3.46791,3.5932z" data-paper-data="{&quot;origPos&quot;:null,&quot;origRot&quot;:0}" fill="url(#color-3)" stroke="#000000" stroke-width="1"/><path d="M249.5087,151.07816c1.85679,1.50693 2.79997,3.65912 2.10665,4.80706c-0.69332,1.14794 -2.7606,0.85692 -4.61739,-0.65001c-1.85679,-1.50693 -2.79997,-3.65912 -2.10665,-4.80706c0.69332,-1.14794 2.7606,-0.85692 4.61739,0.65001z" data-paper-data="{&quot;origPos&quot;:null,&quot;origRot&quot;:0}" fill="url(#color-4)" stroke="#000000" stroke-width="1"/><path d="M250.94592,145.61286c2.20579,0.60468 3.76841,2.20037 3.4902,3.56408c-0.27821,1.36371 -2.29189,1.97901 -4.49768,1.37433c-2.20579,-0.60468 -3.76841,-2.20037 -3.4902,-3.56408c0.27821,-1.36371 2.29189,-1.97901 4.49768,-1.37433z" data-paper-data="{&quot;origPos&quot;:null,&quot;origRot&quot;:0}" fill="url(#color-5)" stroke="#000000" stroke-width="1"/><path d="M251.38226,140.89322c2.26645,0.03368 4.0912,1.19688 4.0757,2.59809c-0.01549,1.40121 -1.86538,2.50979 -4.13182,2.47611c-2.26645,-0.03368 -4.0912,-1.19688 -4.0757,-2.59809c0.01549,-1.40121 1.86538,-2.50979 4.13182,-2.47611z" data-paper-data="{&quot;origPos&quot;:null,&quot;origRot&quot;:0}" fill="url(#color-6)" stroke="#000000" stroke-width="1"/><path d="M249.94787,136.12404c1.99359,-1.25023 4.07602,-1.2646 4.65123,-0.03208c0.57521,1.23252 -0.5746,3.24517 -2.56819,4.4954c-1.99359,1.25023 -4.07601,1.2646 -4.65123,0.03208c-0.57522,-1.23252 0.5746,-3.24517 2.56819,-4.4954z" data-paper-data="{&quot;origPos&quot;:null,&quot;origRot&quot;:0}" fill="url(#color-7)" stroke="#000000" stroke-width="1"/><path d="M246.81137,132.63757c1.51929,-1.94986 3.47817,-2.76909 4.37528,-1.8298c0.89711,0.93929 0.39272,3.28139 -1.12657,5.23125c-1.51929,1.94986 -3.47816,2.76909 -4.37527,1.8298c-0.89711,-0.93929 -0.39273,-3.28139 1.12656,-5.23125z" data-paper-data="{&quot;origPos&quot;:null,&quot;origRot&quot;:0}" fill="url(#color-8)" stroke="#000000" stroke-width="1"/><path d="M246.15161,133.17572c-0.66142,2.51311 -2.13493,4.21891 -3.29119,3.81c-1.15626,-0.40892 -1.55741,-2.77769 -0.89599,-5.29081c0.66142,-2.51311 2.13493,-4.21891 3.29119,-3.81c1.15626,0.40891 1.5574,2.77769 0.89598,5.2908z" data-paper-data="{&quot;origPos&quot;:null,&quot;origRot&quot;:0}" fill="url(#color-9)" stroke="#000000" stroke-width="1"/><path d="M237.76482,132.15894c0,-2.62747 0.97998,-4.75746 2.18886,-4.75746c1.20888,0 2.18885,2.12999 2.18885,4.75746c0,2.62747 -0.97998,4.75745 -2.18885,4.75745c-1.20888,0 -2.18886,-2.12999 -2.18886,-4.75745z" data-paper-data="{&quot;origPos&quot;:null,&quot;origRot&quot;:0,&quot;index&quot;:null}" fill="url(#color-10)" stroke="#000000" stroke-width="1"/><path d="M233.88571,133.87818c-0.78029,-2.46687 -0.49275,-4.85774 0.64223,-5.34014c1.13499,-0.4824 2.68761,1.12633 3.4679,3.5932c0.78029,2.46687 0.49276,4.85774 -0.64223,5.34014c-1.13499,0.48241 -2.68761,-1.12633 -3.4679,-3.5932z" data-paper-data="{&quot;origPos&quot;:null,&quot;origRot&quot;:0,&quot;index&quot;:null}" fill="url(#color-11)" stroke="#000000" stroke-width="1"/><path d="M230.85421,137.03159c-1.70844,-1.72672 -2.44938,-3.98274 -1.65492,-5.03896c0.79445,-1.05622 2.82343,-0.51267 4.53187,1.21405c1.70844,1.72672 2.44938,3.98274 1.65493,5.03896c-0.79445,1.05622 -2.82344,0.51267 -4.53188,-1.21405z" data-paper-data="{&quot;origPos&quot;:null,&quot;origRot&quot;:0,&quot;index&quot;:null}" fill="url(#color-12)" stroke="#000000" stroke-width="1"/><path d="M228.48002,141.66392c-2.06887,-1.07337 -3.34567,-2.98039 -2.85182,-4.25944c0.49384,-1.27905 2.57134,-1.44579 4.64021,-0.37242c2.06887,1.07337 3.34567,2.98039 2.85183,4.25944c-0.49384,1.27905 -2.57134,1.44579 -4.64021,0.37242z" data-paper-data="{&quot;origPos&quot;:null,&quot;origRot&quot;:0,&quot;index&quot;:null}" fill="url(#color-13)" stroke="#000000" stroke-width="1"/><path d="M228.43413,147.17116c-2.26645,-0.03368 -4.0912,-1.19688 -4.0757,-2.59809c0.01549,-1.40121 1.86537,-2.5098 4.13182,-2.47612c2.26645,0.03368 4.09121,1.19688 4.07571,2.59809c-0.01549,1.40121 -1.86538,2.50981 -4.13182,2.47612z" data-paper-data="{&quot;origPos&quot;:null,&quot;origRot&quot;:0,&quot;index&quot;:null}" fill="url(#color-14)" stroke="#000000" stroke-width="1"/><path d="M229.86852,151.94034c-1.99358,1.25023 -4.07602,1.2646 -4.65123,0.03208c-0.57522,-1.23252 0.5746,-3.24517 2.56819,-4.4954c1.99358,-1.25023 4.07602,-1.2646 4.65124,-0.03208c0.57522,1.23252 -0.57461,3.24518 -2.56819,4.49541z" data-paper-data="{&quot;origPos&quot;:null,&quot;origRot&quot;:0,&quot;index&quot;:null}" fill="url(#color-15)" stroke="#000000" stroke-width="1"/><path d="M233.00502,155.42681c-1.51929,1.94986 -3.47817,2.76909 -4.37528,1.8298c-0.89711,-0.93929 -0.39273,-3.28139 1.12657,-5.23125c1.51929,-1.94986 3.47817,-2.76908 4.37528,-1.8298c0.89711,0.93929 0.39272,3.28139 -1.12657,5.23124z" data-paper-data="{&quot;origPos&quot;:null,&quot;origRot&quot;:0,&quot;index&quot;:null}" fill="url(#color-16)" stroke="#000000" stroke-width="1"/><path d="M233.66478,154.88867c0.66142,-2.51311 2.13493,-4.21892 3.29119,-3.81c1.15626,0.40892 1.5574,2.77769 0.89598,5.29081c-0.66142,2.51311 -2.13493,4.21892 -3.29119,3.81c-1.15626,-0.40892 -1.5574,-2.77769 -0.89598,-5.29081z" data-paper-data="{&quot;origPos&quot;:null,&quot;origRot&quot;:0,&quot;index&quot;:null}" fill="url(#color-17)" stroke="#000000" stroke-width="1"/><path d="M240.75833,209.4629c-1.2,2.38627 -5.34222,2.1622 -7.4,1.8c-3.25625,-0.57316 -6.17543,-2.34565 -8.47778,-4.71859c-2.1868,-2.25385 -1.59962,-3.80284 -4.21871,-5.53556c-3.76347,-2.48982 -7.30352,-1.94584 -7.30352,-1.94584c0,0 7.56754,-0.39197 15.8,2.6c3.26705,1.18736 13.7835,3.458 11.6,7.8z" data-paper-data="{&quot;origPos&quot;:null}" fill="#42a551" stroke="#000000" stroke-width="1"/><path d="M251.25405,201.2629c8.23245,-2.99197 15.8,-2.6 15.8,-2.6c0,0 -3.54004,-0.54398 -7.30351,1.94584c-2.61909,1.73272 -2.03191,3.28171 -4.21871,5.53556c-2.30235,2.37294 -5.22153,4.14544 -8.47778,4.7186c-2.05778,0.3622 -6.2,0.58627 -7.4,-1.8c-2.18349,-4.342 8.33295,-6.61264 11.6,-7.8z" data-paper-data="{&quot;origPos&quot;:null,&quot;index&quot;:null}" fill="#42a551" stroke="#000000" stroke-width="1"/><g data-paper-data="{&quot;origPos&quot;:null}" stroke="none" stroke-width="0"><path d="M236.57212,197.46289c0,2.09868 -1.29065,3.8 -2.88276,3.8c-1.5921,0 -2.88276,-1.70132 -2.88276,-3.8c0,-2.09868 1.29065,-3.8 2.88276,-3.8c1.5921,0 2.88276,1.70132 2.88276,3.8z" data-paper-data="{&quot;origPos&quot;:null}" fill="#000000"/><path d="M233.95143,196.41462c0,0.79605 -0.41066,1.44138 -0.91724,1.44138c-0.50658,0 -0.91724,-0.64533 -0.91724,-1.44138c0,-0.79605 0.41066,-1.44138 0.91724,-1.44138c0.50658,0 0.91724,0.64533 0.91724,1.44138z" data-paper-data="{&quot;origPos&quot;:null}" fill="#ffffff"/></g><g data-paper-data="{&quot;origPos&quot;:null}" stroke="none" stroke-width="0"><path d="M250.15833,197.4629c0,2.09868 -1.29066,3.8 -2.88276,3.8c-1.5921,0 -2.88276,-1.70132 -2.88276,-3.8c0,-2.09868 1.29066,-3.8 2.88276,-3.8c1.5921,0 2.88276,1.70132 2.88276,3.8z" data-paper-data="{&quot;origPos&quot;:null}" fill="#000000"/><path d="M247.53764,196.41462c0,0.79605 -0.41066,1.44138 -0.91724,1.44138c-0.50658,0 -0.91724,-0.64533 -0.91724,-1.44138c0,-0.79605 0.41066,-1.44138 0.91724,-1.44138c0.50658,0 0.91724,0.64533 0.91724,1.44138z" data-paper-data="{&quot;origPos&quot;:null}" fill="#ffffff"/></g><g data-paper-data="{&quot;origPos&quot;:null}" fill="#a0d856" stroke="#000000" stroke-width="1"><path d="M245.76504,135.99749l0.13441,11.62709l-10.6935,1.41645l-0.88045,-12.9113z" data-paper-data="{&quot;origPos&quot;:null,&quot;origRot&quot;:0}"/><path d="M244.86151,147.0739l0.06395,5.53225l-10.31436,0.11922l-0.06395,-5.53225z" data-paper-data="{&quot;origPos&quot;:null,&quot;origRot&quot;:0}"/><path d="M239.88373,146.42809c0,0 2.54618,-0.68411 3.56946,-1.3725c0.94074,-0.63286 2.10765,-1.64718 3.24137,-1.66028c2.48573,-0.02874 4.51657,1.31235 4.53603,2.9954c0.01946,1.68304 -3.26875,5.14877 -5.75447,5.17749c-2.48573,0.02874 -5.5924,-5.14011 -5.5924,-5.14011z" data-paper-data="{&quot;origPos&quot;:null,&quot;origRot&quot;:0}"/><path d="M239.81489,148.58583c0,0 -5.12309,1.41901 -7.2981,1.44416c-2.17501,0.02514 -3.95786,-1.65471 -3.9821,-3.75204c-0.02425,-2.09732 3.8575,-5.4369 6.03251,-5.46205c2.42326,-0.02801 1.13673,3.1517 2.84064,4.87497c0.97458,0.98563 2.40705,2.89494 2.40705,2.89494z" data-paper-data="{&quot;origPos&quot;:null,&quot;origRot&quot;:0}"/><path d="M241.2512,151.14815c-0.01644,-1.42235 0.26603,-3.58257 0.26603,-3.58257c0,0 2.29924,1.11466 3.87842,1.0964c3.18484,-0.03682 5.47864,-0.64438 5.50378,1.53063c0.02514,2.17501 -2.53629,3.96805 -5.72113,4.00486c-3.18484,0.03682 -3.90195,-0.87431 -3.92709,-3.04932z" data-paper-data="{&quot;origPos&quot;:null,&quot;origRot&quot;:0}"/><path d="M241.47724,138.25087c-0.03801,-3.28841 -0.08705,-3.51572 2.63172,-3.54714c2.71877,-0.03143 4.95358,2.60888 4.99159,5.8973c0.02487,2.15221 -1.55981,2.02112 -3.45746,3.03677c-1.16017,0.62094 -3.46802,2.24804 -3.46802,2.24804c0,0 0.20855,-1.48936 -0.42973,-2.26063c-0.95078,-1.14888 -0.23008,-2.08592 -0.2681,-5.37433z" data-paper-data="{&quot;origPos&quot;:null,&quot;origRot&quot;:0}"/><path d="M229.27594,136.37388c2.09261,-1.80283 5.23964,-4.59323 10.41825,-4.6531c1.2508,-0.01446 4.57284,0.86627 5.77101,1.22558c2.0773,0.62296 5.71128,5.79498 5.71128,5.79498c0,0 -4.33478,0.30101 -6.76361,0.95866c-1.69797,1.84412 -9.22302,6.13975 -14.40163,6.19961l-3.79361,1.0147c0,0 -0.19161,-7.74058 3.05831,-10.54044z" data-paper-data="{&quot;origPos&quot;:null,&quot;origRot&quot;:0}"/><path d="M226.70863,144.14036c1.0516,-0.58961 2.06498,0.5539 2.06498,0.5539c0,0 0.86298,-0.92203 1.52116,-1.01322c0.67176,-0.09306 1.88661,0.54114 1.88661,0.54114c0,0 0.72996,-0.69381 1.40069,-0.8401c0.6369,-0.13892 1.94995,0.10925 1.94995,0.10925c0,0 0.89873,-0.7012 1.57629,-0.95109c0.63293,-0.23344 1.78169,-0.2874 1.78169,-0.2874c0,0 0.41392,-1.47838 1.02354,-1.98243c0.724,-0.59862 3.41316,0.11425 3.41316,0.11425c0,0 -2.50177,1.74873 -4.33005,2.80824c-1.77128,1.02647 -2.64609,2.16455 -4.69316,2.18823l-8.20069,1.24925c0,0 -0.94708,-1.6193 0.60584,-2.49z" data-paper-data="{&quot;origPos&quot;:null,&quot;origRot&quot;:0}"/><path d="M242.03561,155.79502c-3.16646,0.2586 -0.8862,-0.07013 -4.56476,-0.07227c-3.34327,-0.53606 -4.08251,-0.62143 -5.86498,-1.45189c-1.87337,-0.398 -3.35197,-2.46459 -4.83333,-4.86127c-1.75077,-3.84064 -0.44191,-7.4739 -0.44191,-7.4739c0,0 2.68507,4.5337 7.17782,6.33049c4.49277,1.79678 3.0375,1.30905 5.27624,2.1272c2.37967,0.86965 9.17801,3.61562 9.17801,3.61562c0,0 0.02662,0.32192 -5.92707,1.78601z" data-paper-data="{&quot;origPos&quot;:null,&quot;origRot&quot;:0}"/><path d="M233.63387,149.31371c0,0 -1.32583,0.29098 -1.64054,-0.06915c-0.33435,-0.38263 -0.58737,-2.01512 -0.58737,-2.01512l12.77098,5.52603c0,0 -1.23678,0.34353 -1.61034,0.37849c-0.74147,0.06941 -1.81485,-0.57336 -1.81485,-0.57336c0,0 -1.51743,0.44157 -1.71262,0.35509c-1.53056,-0.67812 -1.20135,-1.85372 -1.20135,-1.85372c0,0 -2.35664,0.33354 -2.84961,0.11514c-0.48601,-0.21534 -1.3543,-1.8634 -1.3543,-1.8634z" data-paper-data="{&quot;origPos&quot;:null,&quot;origRot&quot;:0}"/><path d="M247.69147,133.97283c1.34735,1.33177 -1.09,-1.47446 2.21137,2.00633c1.74833,1.84335 2.30665,0.43006 3.70519,7.0652c0.50332,2.3879 -0.80565,6.88391 -2.42577,8.70891c-2.42504,2.73171 -7.35303,3.10928 -7.35303,3.10928c0,0 3.5897,-6.44894 3.05646,-9.47058c-0.02587,-2.23899 -0.00748,-2.50069 -0.05058,-4.37578c-0.04606,-2.0039 -2.87236,-8.53019 -2.87236,-8.53019c0,0 0.11388,-0.24176 3.72874,1.48684z" data-paper-data="{&quot;origPos&quot;:null,&quot;origRot&quot;:0}"/><path d="M246.53317,147.34977c-0.03941,-3.40925 -0.04723,-8.14263 -0.04723,-8.14263c0,0 1.15008,0.58494 1.40884,1.20494c0.15267,0.36582 -0.35459,1.3211 -0.35459,1.3211c0,0 0.55231,1.15038 0.60505,1.83015c0.04579,0.59018 -0.35258,1.42391 -0.35258,1.42391c0,0 1.00212,0.29918 1.10548,0.67696c0.13657,0.49917 -0.49073,1.57013 -0.49073,1.57013c0,0 0.665,1.08815 0.49117,1.85156c-0.12211,0.5363 -1.24947,1.47879 -1.24947,1.47879c0,0 0.5381,0.98036 0.28096,1.49474c-0.23807,0.47626 -1.54988,1.04366 -1.54988,1.04366c0,0 -0.50695,1.21803 -0.95701,1.51889c-0.73456,0.49105 -2.07841,0.51029 -2.07841,0.51029c0,0 3.22779,-4.37325 3.18839,-7.7825z" data-paper-data="{&quot;origPos&quot;:null,&quot;origRot&quot;:0}"/></g></g></g></svg>