<svg version="1.1" xmlns="http://www.w3.org/2000/svg" xmlns:xlink="http://www.w3.org/1999/xlink" width="177.59226" height="157.50581" viewBox="0,0,177.59226,157.50581"><g transform="translate(-128.37091,-22.139)"><g data-paper-data="{&quot;isPaintingLayer&quot;:true}" fill="none" fill-rule="nonzero" stroke="none" stroke-width="none" stroke-linecap="none" stroke-linejoin="miter" stroke-miterlimit="10" stroke-dasharray="" stroke-dashoffset="0" font-family="none" font-weight="none" font-size="none" text-anchor="none" style="mix-blend-mode: normal"><g data-paper-data="{&quot;origPos&quot;:null,&quot;index&quot;:null,&quot;origRot&quot;:0}" stroke="#000000" stroke-width="2.5"><path d="M208.19687,75.05736c0,0 -9.44088,-10.2343 -3.8404,-23.14787c11.362,-6.50196 13.13277,-20.25146 13.13277,-20.25146c0,0 4.81607,13.6515 10.93716,19.16728c5.58147,12.46759 -1.20849,25.31333 -1.20849,25.31333z" data-paper-data="{&quot;origPos&quot;:null}" fill="#2bd600" stroke-linecap="butt"/><path d="M217.6171,67.72153c0,0 -0.30271,-5.90884 0.13632,-9.59464c0.27681,-2.32394 0.18849,-5.80456 0.18849,-5.80456" data-paper-data="{&quot;origPos&quot;:null}" fill="none" stroke-linecap="round"/></g><g data-paper-data="{&quot;origPos&quot;:null,&quot;index&quot;:null,&quot;origRot&quot;:0}" stroke="#000000" stroke-width="2.5"><path d="M250.34853,135.20654c0,0 2.1992,-8.89636 16.22028,9.3083c0.52601,19.37887 -7.57979,30.11971 -7.57979,30.11971c0,0 -6.27319,-6.01323 -14.8105,-9.66803c-6.66165,-16.38501 -7.8889,-16.25801 -7.8889,-16.25801z" data-paper-data="{&quot;origPos&quot;:null}" fill="#2bd600" stroke-linecap="butt"/><path d="M252.26656,154.02929c0,0 3.48254,2.13362 4.30173,4.2561c0.88019,2.28055 0.05273,7.02612 0.05273,7.02612" data-paper-data="{&quot;origPos&quot;:null}" fill="none" stroke-linecap="round"/></g><g data-paper-data="{&quot;origPos&quot;:null,&quot;index&quot;:null,&quot;origRot&quot;:0}" stroke="#000000" stroke-width="2.5"><path d="M250.34589,71.98866c0,0 -1.34833,-15.50431 11.22847,-17.7487c18.12294,-3.23414 28.50165,-16.19488 28.50165,-16.19488c0,0 11.12697,37.80775 5.42965,48.74522c-6.49436,12.46759 -26.3185,15.05378 -26.3185,15.05378z" data-paper-data="{&quot;origPos&quot;:null}" fill="#2bd600" stroke-linecap="butt"/><path d="M286.5249,55.0527c0,0 -4.39011,9.99253 -8.12903,13.98119c-4.03446,4.30394 -11.78929,7.26758 -11.78929,7.26758" data-paper-data="{&quot;origPos&quot;:null}" fill="none" stroke-linecap="round"/></g><g data-paper-data="{&quot;origPos&quot;:null,&quot;index&quot;:null,&quot;origRot&quot;:0}" stroke="#000000" stroke-width="2.5"><path d="M264.22657,130.21496c0,0 -3.56009,-9.75247 15.67268,0.19781c2.78032,7.91651 19.68724,16.04991 19.68724,16.04991c0,0 -18.85615,13.02366 -27.69722,10.0942c-20.05459,-8.66473 -17.14236,-24.52799 -17.14236,-24.52799z" data-paper-data="{&quot;origPos&quot;:null,&quot;origRot&quot;:0}" fill="#2bd600" stroke-linecap="butt"/><path d="M285.4372,145.41484c0,0 -5.6306,0.49823 -9.09024,-0.13206c-3.07021,-0.55934 -7.64171,-2.91622 -7.64171,-2.91622" data-paper-data="{&quot;origPos&quot;:null}" fill="none" stroke-linecap="round"/></g><g data-paper-data="{&quot;origPos&quot;:null,&quot;index&quot;:null,&quot;origRot&quot;:0}" stroke="#000000" stroke-width="2.5"><path d="M268.49062,99.0214c0,0 9.07613,-10.88579 18.1733,-3.54416c7.7522,10.45811 17.36904,15.70423 17.36904,15.70423c0,0 -8.18259,9.8803 -16.88949,17.326c-13.57728,5.82815 -18.32696,-0.927 -18.32696,-0.927z" data-paper-data="{&quot;origPos&quot;:null}" fill="#2bd600" stroke-linecap="butt"/><path d="M290.62023,111.30639c0,0 -4.21831,3.48105 -6.94616,3.76266c-2.68611,0.27731 -6.92644,-2.33053 -6.92644,-2.33053" data-paper-data="{&quot;origPos&quot;:null}" fill="none" stroke-linecap="round"/></g><g data-paper-data="{&quot;origPos&quot;:null,&quot;index&quot;:null,&quot;origRot&quot;:0}" stroke="#000000" stroke-width="2.5"><path d="M236.40539,57.2268c0,0 -1.89349,-1.93217 3.70699,-14.84574c8.34304,-8.76618 8.60434,-16.47776 8.60434,-16.47776c0,0 13.87294,19.68941 13.20138,28.97889c-6.49436,12.46759 -13.28432,12.48277 -13.28432,12.48277z" data-paper-data="{&quot;origPos&quot;:null}" fill="#2bd600" stroke-linecap="butt"/><path d="M247.3351,56.68362c0,0 -0.30271,-5.90884 0.13632,-9.59464c0.27681,-2.32394 1.69797,-5.80456 1.69797,-5.80456" data-paper-data="{&quot;origPos&quot;:null}" fill="none" stroke-linecap="round"/></g><g data-paper-data="{&quot;origPos&quot;:null,&quot;origRot&quot;:0}" stroke="#000000" stroke-width="2.5"><path d="M198.47953,150.8022c0,0 -1.10532,-0.92071 -7.52128,15.56204c-8.48173,3.78202 -14.66432,9.88835 -14.66432,9.88835c0,0 -8.26546,-10.61845 -8.02922,-30.00302c13.74736,-18.41223 16.07931,-9.54974 16.07931,-9.54974z" data-paper-data="{&quot;origPos&quot;:null}" fill="#2bd600" stroke-linecap="butt"/><path d="M178.52228,166.89522c0,0 -0.89831,-4.73268 -0.05231,-7.02613c0.78737,-2.1345 4.23762,-4.31994 4.23762,-4.31994" data-paper-data="{&quot;origPos&quot;:null}" fill="none" stroke-linecap="round"/></g><g data-paper-data="{&quot;origPos&quot;:null,&quot;origRot&quot;:0}" stroke="#000000" stroke-width="2.5"><path d="M165.00876,103.62271c0,0 -19.86059,-2.28955 -26.5406,-14.65866c-5.8602,-10.85108 3.02014,-49.33681 3.02014,-49.33681c0,0 12.25151,13.32002 30.42076,16.28288c12.60895,2.05614 11.49255,17.57886 11.49255,17.57886z" data-paper-data="{&quot;origPos&quot;:null}" fill="#2bd600" stroke-linecap="butt"/><path d="M167.20722,78.04439c0,0 -7.79827,-2.84739 -11.89662,-7.09053c-3.79813,-3.93232 -8.33713,-13.85811 -8.33713,-13.85811" data-paper-data="{&quot;origPos&quot;:null}" fill="none" stroke-linecap="round"/></g><g data-paper-data="{&quot;origPos&quot;:null,&quot;origRot&quot;:0}" stroke="#000000" stroke-width="2.5"><path d="M181.58863,129.05853c0,0 1.45903,20.34774 -18.46378,29.31129c-8.79628,3.06129 -27.84501,-9.67903 -27.84501,-9.67903c0,0 16.78345,-8.38524 19.44511,-16.34243c19.08188,-10.23668 15.66798,-0.43209 15.66798,-0.43209z" data-paper-data="{&quot;origPos&quot;:null,&quot;origRot&quot;:0}" fill="#2bd600" stroke-linecap="butt"/><path d="M166.09639,144.13347c0,0 -4.53574,2.42495 -7.59726,3.03013c-3.44982,0.68194 -9.08725,0.26794 -9.08725,0.26794" data-paper-data="{&quot;origPos&quot;:null}" fill="none" stroke-linecap="round"/></g><g data-paper-data="{&quot;origPos&quot;:null,&quot;origRot&quot;:0}" stroke="#000000" stroke-width="2.5"><path d="M165.76412,129.3507c0,0 -4.64817,6.82539 -18.31106,1.20087c-8.81724,-7.31471 -17.14661,-17.07159 -17.14661,-17.07159c0,0 9.53734,-5.3893 17.13232,-15.96212c8.9864,-7.47682 18.22426,3.27209 18.22426,3.27209z" data-paper-data="{&quot;origPos&quot;:null}" fill="#2bd600" stroke-linecap="butt"/><path d="M157.612,114.62897c0,0 -4.20087,2.67093 -6.89083,2.43381c-2.73176,-0.2408 -7.00163,-3.6584 -7.00163,-3.6584" data-paper-data="{&quot;origPos&quot;:null}" fill="none" stroke-linecap="round"/></g><g data-paper-data="{&quot;origPos&quot;:null,&quot;origRot&quot;:0}" stroke="#000000" stroke-width="2.5"><path d="M185.04441,68.84021c0,0 -6.78943,0.08633 -13.46944,-12.28278c-0.81036,-9.2784 12.76669,-29.173 12.76669,-29.173c0,0 0.37657,7.7068 8.84971,16.3473c5.7929,12.8284 3.9285,14.78865 3.9285,14.78865z" data-paper-data="{&quot;origPos&quot;:null}" fill="#2bd600" stroke-linecap="butt"/><path d="M184.11899,42.77057c0,0 1.47303,3.45899 1.78455,5.77853c0.49408,3.67883 0.27973,9.59153 0.27973,9.59153" data-paper-data="{&quot;origPos&quot;:null}" fill="none" stroke-linecap="round"/></g><path d="M268.74021,108.55769c0,0 3.22846,6.05463 5.89009,8.96199c0.95249,1.04043 2.20729,-0.16833 3.11305,0.9109c1.89328,2.25588 1.35249,0.42574 0.82198,3.34507c-0.60703,3.34038 -9.60503,7.50431 -12.86715,8.78671c-3.0366,1.19374 -13.36833,4.54808 -15.9293,2.6931c-2.32729,-1.68572 -1.48419,-0.11235 -1.88049,-2.92962c-0.21121,-1.50153 1.98798,-1.43894 1.89594,-2.95509c-0.23706,-3.90525 -2.58811,-10.94338 -2.58811,-10.94338" data-paper-data="{&quot;origPos&quot;:null}" fill="#adff00" stroke="#000000" stroke-width="3.5" stroke-linecap="round"/><path d="M278.22171,76.18635c6.22401,15.8324 -1.95704,33.8667 -18.27287,40.28075c-16.31583,6.41405 -34.58797,-1.22102 -40.81197,-17.05342c-6.22401,-15.8324 1.95703,-33.86671 18.27286,-40.28076c16.31583,-6.41405 34.58798,1.22103 40.81198,17.05343z" data-paper-data="{&quot;origPos&quot;:null}" fill="#adff00" stroke="#000000" stroke-width="3.5" stroke-linecap="butt"/><g data-paper-data="{&quot;origPos&quot;:null}" stroke-width="0" stroke-linecap="butt"><path d="M259.04612,99.38902c-1.04525,-2.65888 0.26285,-5.66167 2.92173,-6.70692c2.65888,-1.04525 5.66166,0.26285 6.70691,2.92173c1.04525,2.65888 -0.26284,5.66166 -2.92172,6.70692c-2.65888,1.04525 -5.66167,-0.26284 -6.70692,-2.92172z" data-paper-data="{&quot;origPos&quot;:null}" fill="#000000" stroke="#000000"/><path d="M262.2071,96.50415c-0.45136,-1.14816 0.11349,-2.44481 1.26165,-2.89617c1.14816,-0.45136 2.44482,0.1135 2.89618,1.26165c0.45136,1.14816 -0.1135,2.44481 -1.26166,2.89617c-1.14816,0.45136 -2.44481,-0.1135 -2.89617,-1.26165z" data-paper-data="{&quot;origPos&quot;:null}" fill="#ffffff" stroke="none"/></g><g data-paper-data="{&quot;origPos&quot;:null}" stroke-width="0" stroke-linecap="butt"><path d="M239.48398,106.82661c-1.04525,-2.65888 0.26284,-5.66167 2.92172,-6.70692c2.65888,-1.04525 5.66167,0.26284 6.70692,2.92172c1.04525,2.65888 -0.26284,5.66167 -2.92172,6.70692c-2.65888,1.04525 -5.66167,-0.26284 -6.70692,-2.92172z" data-paper-data="{&quot;origPos&quot;:null}" fill="#000000" stroke="#000000"/><path d="M242.64496,103.94173c-0.45136,-1.14816 0.1135,-2.44481 1.26165,-2.89617c1.14816,-0.45136 2.44481,0.1135 2.89617,1.26166c0.45136,1.14816 -0.1135,2.44481 -1.26165,2.89617c-1.14816,0.45136 -2.44481,-0.11349 -2.89617,-1.26165z" data-paper-data="{&quot;origPos&quot;:null}" fill="#ffffff" stroke="none"/></g><path d="M252.39238,124.23807l-2.33026,-4.64226l3.54489,-1.18059l5.69286,-2.95625l6.17555,-1.77953l3.40631,-1.48197l1.45493,4.98637z" data-paper-data="{&quot;origPos&quot;:null}" fill="#adff00" stroke="none" stroke-width="0" stroke-linecap="butt"/><path d="M189.50005,117.65367c0,0 -2.35106,7.03814 -2.58811,10.94339c-0.09204,1.51615 2.10716,1.45356 1.89594,2.95509c-0.3963,2.81727 0.4468,1.2439 -1.88049,2.92962c-2.56097,1.85498 -12.8927,-1.49935 -15.9293,-2.6931c-3.26213,-1.2824 -12.26013,-5.44633 -12.86716,-8.78672c-0.53051,-2.91933 -1.07129,-1.08918 0.82198,-3.34507c0.90576,-1.07923 2.16056,0.12952 3.11305,-0.91091c2.66163,-2.90736 5.89009,-8.96199 5.89009,-8.96199" data-paper-data="{&quot;origPos&quot;:null}" fill="#adff00" stroke="#000000" stroke-width="3.5" stroke-linecap="round"/><path d="M199.28655,60.35923c16.31583,6.41405 24.49687,24.44837 18.27286,40.28076c-6.22401,15.8324 -24.49615,23.46747 -40.81198,17.05342c-16.31583,-6.41405 -24.49687,-24.44836 -18.27287,-40.28075c6.22401,-15.8324 24.49616,-23.46748 40.81199,-17.05343z" data-paper-data="{&quot;origPos&quot;:null}" fill="#adff00" stroke="#000000" stroke-width="3.5" stroke-linecap="butt"/><g data-paper-data="{&quot;origPos&quot;:null}" stroke-width="0" stroke-linecap="butt"><path d="M170.94323,103.53705c-2.65888,-1.04525 -3.96698,-4.04804 -2.92172,-6.70692c1.04525,-2.65888 4.04804,-3.96698 6.70691,-2.92172c2.65888,1.04525 3.96698,4.04804 2.92173,6.70692c-1.04525,2.65888 -4.04804,3.96698 -6.70692,2.92172z" data-paper-data="{&quot;origPos&quot;:null}" fill="#000000" stroke="#000000"/><path d="M171.593,98.99211c-1.14815,-0.45136 -1.71303,-1.74802 -1.26166,-2.89617c0.45136,-1.14816 1.74802,-1.71301 2.89618,-1.26165c1.14815,0.45136 1.71301,1.74802 1.26165,2.89617c-0.45136,1.14816 -1.74801,1.71301 -2.89616,1.26165z" data-paper-data="{&quot;origPos&quot;:null}" fill="#ffffff" stroke="none"/></g><g data-paper-data="{&quot;origPos&quot;:null}" stroke-width="0" stroke-linecap="butt"><path d="M190.50537,110.97464c-2.65888,-1.04525 -3.96698,-4.04804 -2.92173,-6.70692c1.04525,-2.65888 4.04804,-3.96698 6.70692,-2.92172c2.65888,1.04525 3.96698,4.04804 2.92173,6.70692c-1.04525,2.65888 -4.04804,3.96698 -6.70692,2.92172z" data-paper-data="{&quot;origPos&quot;:null}" fill="#000000" stroke="#000000"/><path d="M191.15514,106.42969c-1.14816,-0.45136 -1.71301,-1.74801 -1.26165,-2.89617c0.45136,-1.14815 1.74801,-1.71301 2.89616,-1.26165c1.14815,0.45136 1.71301,1.74802 1.26166,2.89617c-0.45136,1.14816 -1.74802,1.71301 -2.89617,1.26165z" data-paper-data="{&quot;origPos&quot;:null}" fill="#ffffff" stroke="none"/></g><path d="M166.3596,118.41015l1.45493,-4.98637l3.40631,1.48197l6.17555,1.77952l5.69286,2.95625l3.5449,1.18058l-2.33026,4.64226z" data-paper-data="{&quot;origPos&quot;:null}" fill="#adff00" stroke="none" stroke-width="0" stroke-linecap="butt"/><path d="M228.27262,158.52871c0,0 0.78946,6.81603 2.20286,10.49561c0.5058,1.31678 2.11584,0.65091 2.56395,1.9867c0.93667,2.79216 1.10296,0.89105 -0.45885,3.41389c-1.78707,2.8867 -11.68465,3.4699 -15.18979,3.4699c-3.26282,0 -14.10546,-0.65822 -15.81021,-3.32156c-1.5492,-2.42031 -1.34019,-0.64757 -0.67827,-3.41451c0.35278,-1.4747 2.37661,-0.61185 2.84566,-2.05656c1.20816,-3.72122 1.5951,-11.13156 1.5951,-11.13156" data-paper-data="{&quot;origPos&quot;:null}" fill="#adff00" stroke="#000000" stroke-width="3.5" stroke-linecap="round"/><path d="M248.94021,131.87065c0,17.01185 -14.21193,30.80268 -31.74322,30.80268c-17.53129,0 -31.74322,-13.79083 -31.74322,-30.80268c0,-17.01185 14.21192,-30.80268 31.74322,-30.80268c17.53129,0 31.74322,13.79083 31.74322,30.80268z" data-paper-data="{&quot;origPos&quot;:null}" fill="#adff00" stroke="#000000" stroke-width="3.5" stroke-linecap="butt"/><g data-paper-data="{&quot;origPos&quot;:null}" stroke-width="0" stroke-linecap="butt"><path d="M222.6051,146.44901c0,-2.85695 2.31602,-5.17297 5.17297,-5.17297c2.85695,0 5.17297,2.31601 5.17297,5.17297c0,2.85695 -2.31601,5.17297 -5.17297,5.17297c-2.85695,0 -5.17297,-2.31602 -5.17297,-5.17297z" data-paper-data="{&quot;origPos&quot;:null}" fill="#000000" stroke="#000000"/><path d="M226.60239,144.92063c0,-1.23369 1.00009,-2.23378 2.23378,-2.23378c1.23369,0 2.23379,1.00009 2.23379,2.23378c0,1.23369 -1.0001,2.23378 -2.23379,2.23378c-1.23369,0 -2.23378,-1.00009 -2.23378,-2.23378z" data-paper-data="{&quot;origPos&quot;:null}" fill="#ffffff" stroke="none"/></g><g data-paper-data="{&quot;origPos&quot;:null}" stroke-width="0" stroke-linecap="butt"><path d="M201.67809,146.21388c0,-2.85695 2.31602,-5.17297 5.17297,-5.17297c2.85695,0 5.17297,2.31602 5.17297,5.17297c0,2.85695 -2.31602,5.17297 -5.17297,5.17297c-2.85695,0 -5.17297,-2.31601 -5.17297,-5.17297z" data-paper-data="{&quot;origPos&quot;:null}" fill="#000000" stroke="#000000"/><path d="M205.67538,144.6855c0,-1.23369 1.00009,-2.23378 2.23378,-2.23378c1.23369,0 2.23378,1.00009 2.23378,2.23378c0,1.23369 -1.00009,2.23378 -2.23378,2.23378c-1.23369,0 -2.23378,-1.00009 -2.23378,-2.23378z" data-paper-data="{&quot;origPos&quot;:null}" fill="#ffffff" stroke="none"/></g><path d="M207.32133,167.14089l-0.47027,-5.17297l3.73105,0.19821l6.37975,-0.66848l6.39846,0.60325l3.71234,-0.13298l-0.47027,5.17297z" data-paper-data="{&quot;origPos&quot;:null}" fill="#adff00" stroke="none" stroke-width="0" stroke-linecap="butt"/><path d="M214.5867,117.76568c0,0 -2.50432,-6.23217 -2.50432,-11.0674c0,-5.39257 0.22004,-6.22975 0.80873,-11.54476c0.92833,-8.38138 4.36326,-15.20907 4.36326,-15.20907c0,0 4.57667,11.19393 5.28131,14.38008c1.50705,6.81436 0.84472,4.83192 0.60642,12.02509c-0.15135,4.56837 -3.05579,11.70588 -3.05579,11.70588c0,0 -1.49427,1.14263 -2.45068,1.21313c-0.86571,0.06381 -3.04894,-1.50293 -3.04894,-1.50293z" data-paper-data="{&quot;origPos&quot;:null}" fill="#2e8000" stroke="#000000" stroke-width="2.5" stroke-linecap="butt"/><path d="M238.14043,73.79952c0,0 -4.62082,-2.14609 -7.13141,-4.81997c-2.79998,-2.9821 -3.11299,-3.55931 -5.54715,-6.80418c-3.83849,-5.11693 -5.4841,-10.67617 -5.4841,-10.67617c0,0 8.34312,3.81392 10.38712,5.21c4.37161,2.98585 2.97601,2.23346 6.57913,6.33502c2.28833,2.6049 4.38818,8.06002 4.38818,8.06002c0,0 -0.23305,1.40774 -0.72534,1.94333c-0.44561,0.48479 -2.46644,0.75198 -2.46644,0.75198z" data-paper-data="{&quot;origPos&quot;:null,&quot;origRot&quot;:0}" fill="#2e8000" stroke="#000000" stroke-width="2.5" stroke-linecap="butt"/><path d="M242.4933,77.12901c0,0 -3.46463,-5.1756 -4.38972,-9.56282c-1.03172,-4.89292 -0.99223,-5.69463 -1.47497,-10.62981c-0.76123,-7.78241 1.04916,-14.63465 1.04916,-14.63465c0,0 6.29426,9.28114 7.54319,12.03726c2.67114,5.89464 1.6909,4.22261 2.85089,10.79488c0.7367,4.17404 -0.53306,11.20591 -0.53306,11.20591c0,0 -1.13721,1.32265 -1.99151,1.5696c-0.77329,0.22353 -3.05399,-0.78035 -3.05399,-0.78035z" data-paper-data="{&quot;origPos&quot;:null,&quot;origRot&quot;:0}" fill="#2e8000" stroke="#000000" stroke-width="2.5" stroke-linecap="butt"/><path d="M191.97683,67.94748c0,0 -0.39047,-4.41451 0.72365,-7.45367c1.24254,-3.38948 1.59592,-3.87199 3.24994,-7.09582c2.60827,-5.08374 6.68667,-8.69315 6.68667,-8.69315c0,0 0.75861,7.94472 0.53838,10.08729c-0.47102,4.5824 -0.49728,3.20483 -2.32851,7.67874c-1.16301,2.84138 -4.9259,6.75087 -4.9259,6.75087c0,0 -1.35309,0.42147 -2.06687,0.27586c-0.64609,-0.1318 -1.87737,-1.55011 -1.87737,-1.55011z" data-paper-data="{&quot;origPos&quot;:null,&quot;origRot&quot;:0}" fill="#2e8000" stroke="#000000" stroke-width="2.5" stroke-linecap="butt"/><path d="M186.44927,76.07269c0,0 -1.91545,-4.10805 -1.91545,-7.29528c0,-3.55461 0.1683,-4.10646 0.61856,-7.60994c0.71004,-5.52474 3.33728,-10.02534 3.33728,-10.02534c0,0 3.5005,7.37869 4.03945,9.47889c1.15267,4.49181 0.64609,3.18505 0.46383,7.92656c-0.11576,3.01133 -2.33724,7.71615 -2.33724,7.71615c0,0 -1.1429,0.75319 -1.87442,0.79966c-0.66215,0.04206 -2.33201,-0.99069 -2.33201,-0.99069z" data-paper-data="{&quot;origPos&quot;:null}" fill="#2e8000" stroke="#000000" stroke-width="2.5" stroke-linecap="butt"/><path d="M192.11386,78.26559c0,0 0.78855,-4.37485 2.67788,-7.11478c2.10711,-3.05575 2.57891,-3.45605 5.04279,-6.26961c3.88536,-4.43677 8.81175,-7.14904 8.81175,-7.14904c0,0 -1.36472,7.88434 -2.14637,9.92708c-1.67176,4.36892 -1.33262,3.02252 -4.29999,7.01834c-1.88457,2.53774 -6.58322,5.60421 -6.58322,5.60421c0,0 -1.42898,0.14429 -2.08539,-0.13783c-0.59415,-0.25537 -1.41747,-1.87838 -1.41747,-1.87838z" data-paper-data="{&quot;origPos&quot;:null,&quot;origRot&quot;:0}" fill="#2e8000" stroke="#000000" stroke-width="2.5" stroke-linecap="butt"/></g></g></svg>