<svg version="1.1" xmlns="http://www.w3.org/2000/svg" xmlns:xlink="http://www.w3.org/1999/xlink" width="73.96151" height="85.08603" viewBox="0,0,73.96151,85.08603"><defs><radialGradient cx="240.15833" cy="144.0629" r="10" gradientUnits="userSpaceOnUse" id="color-1"><stop offset="0" stop-color="#cdbc00"/><stop offset="1" stop-color="#6e5b03"/></radialGradient><linearGradient x1="240.06272" y1="151.94798" x2="240.06272" y2="161.4629" gradientUnits="userSpaceOnUse" id="color-2"><stop offset="0" stop-color="#cdbc00"/><stop offset="1" stop-color="#645103"/></linearGradient><linearGradient x1="242.46278" y1="150.593" x2="245.28845" y2="159.52634" gradientUnits="userSpaceOnUse" id="color-3"><stop offset="0" stop-color="#cdbc00"/><stop offset="1" stop-color="#645103"/></linearGradient><linearGradient x1="244.8913" y1="150.42815" x2="251.61535" y2="155.88522" gradientUnits="userSpaceOnUse" id="color-4"><stop offset="0" stop-color="#cdbc00"/><stop offset="1" stop-color="#645103"/></linearGradient><linearGradient x1="246.44824" y1="146.98719" x2="254.43612" y2="149.17693" gradientUnits="userSpaceOnUse" id="color-5"><stop offset="0" stop-color="#cdbc00"/><stop offset="1" stop-color="#645103"/></linearGradient><linearGradient x1="247.25044" y1="143.36934" x2="255.45797" y2="143.49131" gradientUnits="userSpaceOnUse" id="color-6"><stop offset="0" stop-color="#cdbc00"/><stop offset="1" stop-color="#645103"/></linearGradient><linearGradient x1="247.37968" y1="140.61944" x2="254.5991" y2="136.09196" gradientUnits="userSpaceOnUse" id="color-7"><stop offset="0" stop-color="#cdbc00"/><stop offset="1" stop-color="#645103"/></linearGradient><linearGradient x1="245.68481" y1="137.86882" x2="251.18665" y2="130.80777" gradientUnits="userSpaceOnUse" id="color-8"><stop offset="0" stop-color="#cdbc00"/><stop offset="1" stop-color="#645103"/></linearGradient><linearGradient x1="245.25562" y1="127.88491" x2="242.86042" y2="136.98571" gradientUnits="userSpaceOnUse" id="color-9"><stop offset="0" stop-color="#cdbc00"/><stop offset="1" stop-color="#645103"/></linearGradient><linearGradient x1="239.95368" y1="136.9164" x2="239.95368" y2="127.40148" gradientUnits="userSpaceOnUse" id="color-10"><stop offset="0" stop-color="#cdbc00"/><stop offset="1" stop-color="#645103"/></linearGradient><linearGradient x1="237.35361" y1="137.47138" x2="234.52794" y2="128.53804" gradientUnits="userSpaceOnUse" id="color-11"><stop offset="0" stop-color="#cdbc00"/><stop offset="1" stop-color="#645103"/></linearGradient><linearGradient x1="235.38609" y1="138.24564" x2="229.19929" y2="131.99263" gradientUnits="userSpaceOnUse" id="color-12"><stop offset="0" stop-color="#cdbc00"/><stop offset="1" stop-color="#645103"/></linearGradient><linearGradient x1="233.12023" y1="141.2915" x2="225.6282" y2="137.40448" gradientUnits="userSpaceOnUse" id="color-13"><stop offset="0" stop-color="#cdbc00"/><stop offset="1" stop-color="#645103"/></linearGradient><linearGradient x1="232.56596" y1="144.69503" x2="224.35843" y2="144.57307" gradientUnits="userSpaceOnUse" id="color-14"><stop offset="0" stop-color="#cdbc00"/><stop offset="1" stop-color="#645103"/></linearGradient><linearGradient x1="232.43671" y1="147.44493" x2="225.21729" y2="151.97242" gradientUnits="userSpaceOnUse" id="color-15"><stop offset="0" stop-color="#cdbc00"/><stop offset="1" stop-color="#645103"/></linearGradient><linearGradient x1="234.13159" y1="150.19556" x2="228.62974" y2="157.25661" gradientUnits="userSpaceOnUse" id="color-16"><stop offset="0" stop-color="#cdbc00"/><stop offset="1" stop-color="#645103"/></linearGradient><linearGradient x1="234.56077" y1="160.17947" x2="236.95598" y2="151.07867" gradientUnits="userSpaceOnUse" id="color-17"><stop offset="0" stop-color="#cdbc00"/><stop offset="1" stop-color="#645103"/></linearGradient></defs><g transform="translate(-202.77323,-126.90148)"><g data-paper-data="{&quot;isPaintingLayer&quot;:true}" fill="none" fill-rule="nonzero" stroke="none" stroke-width="none" stroke-linecap="butt" stroke-linejoin="miter" stroke-miterlimit="10" stroke-dasharray="" stroke-dashoffset="0" font-family="none" font-weight="none" font-size="none" text-anchor="none" style="mix-blend-mode: normal"><path d="M250.75221,154.72956c3.37545,0 16.96944,0.46152 16.96944,0.46152c0,0 1.83056,10.57304 3.83056,14.13848c2.70193,4.81678 -4.6471,6.6 -12.6,6.6c-7.9529,0 -14.4,-4.47716 -14.4,-10c0,-5.52284 -1.7529,-11.2 6.2,-11.2z" data-paper-data="{&quot;origPos&quot;:null,&quot;index&quot;:null}" fill="#42a551" stroke="#000000" stroke-width="1"/><path d="M236.75833,166.32956c0,5.52284 -6.4471,10 -14.4,10c-7.9529,0 -15.30193,-1.78322 -12.6,-6.6c2,-3.56544 3.83056,-14.13848 3.83056,-14.13848c0,0 13.59399,-0.46152 16.96944,-0.46152c7.9529,0 6.2,5.67715 6.2,11.2z" data-paper-data="{&quot;origPos&quot;:null}" fill="#42a551" stroke="#000000" stroke-width="1"/><path d="M203.52782,169.85586c0,0 3.99177,1.20704 7.02182,2.40704c3.03006,1.2 8,11.89776 8,20.9c0,9.00224 2.63005,6.7 0.2,6.7c-2.43006,0 -12.6,-3.49776 -12.6,-12.5c0,-9.00224 -2.62182,-17.50704 -2.62182,-17.50704z" data-paper-data="{&quot;origPos&quot;:null,&quot;index&quot;:null}" fill="#42a551" stroke="#000000" stroke-width="1"/><path d="M273.35832,187.3629c0,9.00224 -10.16994,12.5 -12.6,12.5c-2.43005,0 0.2,2.30224 0.2,-6.7c0,-9.00224 4.96994,-19.7 8,-20.9c3.03006,-1.2 7.02182,-2.40704 7.02182,-2.40704c0,0 -2.62182,8.5048 -2.62182,17.50704z" data-paper-data="{&quot;origPos&quot;:null}" fill="#42a551" stroke="#000000" stroke-width="1"/><path d="M227.15833,198.72956v-24.8l22.84058,-2.75719l1.55942,27.55719z" data-paper-data="{&quot;origPos&quot;:null}" fill="#85b448" stroke="#000000" stroke-width="1"/><path d="M229.35833,175.12956v-11.8h22v11.8z" data-paper-data="{&quot;origPos&quot;:null}" fill="#85b448" stroke="#000000" stroke-width="1"/><path d="M239.95833,176.62956c0,0 -5.44703,1.39619 -7.64633,2.83908c-2.02188,1.32649 -4.53549,3.46092 -6.95367,3.46092c-5.30193,0 -9.6,-2.91015 -9.6,-6.5c0,-3.58985 7.09806,-10.9 12.4,-10.9c5.30194,0 11.8,11.1 11.8,11.1z" data-paper-data="{&quot;origPos&quot;:null}" fill="#85b448" stroke="#000000" stroke-width="1"/><path d="M240.15833,172.02956c0,0 3.00793,4.10722 5.06205,6.23329c3.59137,3.71716 0.76927,10.46671 5.93795,10.46671c4.63919,0 13,-7.0265 13,-11.5c0,-4.4735 -3.76081,-8.1 -8.4,-8.1c-4.63919,0 -15.6,2.9 -15.6,2.9z" data-paper-data="{&quot;origPos&quot;:null}" fill="#95ca51" stroke="#000000" stroke-width="1"/><path d="M237.15833,166.52956c0,3.03382 -0.65566,7.63386 -0.65566,7.63386c0,0 -4.87602,-2.43386 -8.24434,-2.43386c-6.7931,0 -11.7,1.23919 -11.7,-3.4c0,-4.63919 5.5069,-8.4 12.3,-8.4c6.7931,0 8.3,1.96081 8.3,6.6z" data-paper-data="{&quot;origPos&quot;:null}" fill="#95ca51" stroke="#000000" stroke-width="1"/><path d="M236.35833,194.02956c0,7.01402 0.09899,7.5 -5.7,7.5c-5.79899,0 -10.5,-5.68599 -10.5,-12.7c0,-4.59053 3.37639,-4.27192 7.44845,-6.39118c2.48958,-1.29567 7.45155,-4.70882 7.45155,-4.70882c0,0 -0.48149,3.17114 0.86075,4.83174c1.99938,2.4736 0.43926,4.45425 0.43926,11.46827z" data-paper-data="{&quot;origPos&quot;:null}" fill="#95ca51" stroke="#000000" stroke-width="1"/><path d="M262.33333,198.33334c-4.50729,3.79324 -11.28764,9.66666 -22.33333,9.66666c-2.6679,0 -9.731,-1.96019 -12.27743,-2.75603c-4.41482,-1.37976 -12.03738,-12.49953 -12.03738,-12.49953c0,0 9.25207,-0.53508 14.44815,-1.87777c3.66666,-3.89103 19.82097,-12.86667 30.86667,-12.86667l8.11551,-2.07049c0,0 0.21783,16.5128 -6.78217,22.40383z" data-paper-data="{&quot;origPos&quot;:null}" fill="#a0d856" stroke="#000000" stroke-width="1"/><path d="M268,181.83334c-2.25725,1.23152 -4.39024,-1.23219 -4.39024,-1.23219c0,0 -1.8632,1.94512 -3.26909,2.12334c-1.43493,0.18191 -4.01017,-1.20056 -4.01017,-1.20056c0,0 -1.57387,1.46165 -3.00793,1.75713c-1.36172,0.28057 -4.1559,-0.28107 -4.1559,-0.28107c0,0 -1.93397,1.47325 -3.38515,1.9895c-1.35557,0.48224 -3.80681,0.569 -3.80681,0.569c0,0 -0.9192,3.14268 -2.23175,4.20263c-1.55883,1.25883 -7.27629,-0.3278 -7.27629,-0.3278c0,0 5.37855,-3.6678 9.30379,-5.88228c3.80286,-2.14545 5.69657,-4.55105 10.06288,-4.55105l17.52011,-2.46207c0,0 1.97989,3.4768 -1.35345,5.29541z" data-paper-data="{&quot;origPos&quot;:null}" fill="#bdff66" stroke="#000000" stroke-width="1"/><path d="M235.6,156.6c6.75937,-0.47343 1.88825,0.17141 9.73334,0.26667c7.11683,1.22565 8.69131,1.42594 12.47226,3.24095c3.98546,0.89499 7.08788,5.33879 10.18805,10.4866c3.63913,8.23396 0.75821,15.95021 0.75821,15.95021c0,0 -5.61459,-9.73507 -15.15185,-13.67777c-9.53726,-3.94269 -6.4457,-2.86667 -11.2,-4.66667c-5.05363,-1.91332 -19.48449,-7.93716 -19.48449,-7.93716c0,0 -0.04885,-0.68721 12.68449,-3.66284z" data-paper-data="{&quot;origPos&quot;:null}" fill="#a0d856" stroke="#000000" stroke-width="1"/><path d="M253.35833,170.62956c0,0 2.83472,-0.58788 3.497,0.18793c0.70364,0.82426 1.203,4.31207 1.203,4.31207l-27.1,-12.1c0,0 2.64608,-0.70214 3.44365,-0.76751c1.58304,-0.12976 3.85636,1.26751 3.85636,1.26751c0,0 3.24705,-0.90432 3.66119,-0.71508c3.24746,1.48394 2.51638,3.98298 2.51638,3.98298c0,0 5.03416,-0.65326 6.08011,-0.17531c1.03119,0.47121 2.84231,4.00741 2.84231,4.00741z" data-paper-data="{&quot;origPos&quot;:null}" fill="#bdff66" stroke="#000000" stroke-width="1"/><path d="M223,203c-2.84063,-2.87343 2.28825,3.17141 -4.66666,-4.33334c-3.68317,-3.97435 -4.90869,-0.97406 -7.72774,-15.15905c-1.01454,-5.10501 1.88788,-14.66121 5.38805,-18.51339c5.23913,-5.76604 15.75821,-6.44979 15.75821,-6.44979c0,0 -7.81459,13.66493 -6.75185,20.12223c0,4.77563 -0.04569,5.33334 0,9.33334c0.04883,4.2748 5.91551,18.26284 5.91551,18.26284c0,0 -0.24885,0.51279 -7.91551,-3.26284z" data-paper-data="{&quot;origPos&quot;:null}" fill="#a0d856" stroke="#000000" stroke-width="1"/><path d="M225.8,174.5c0,7.27175 -0.1,17.36667 -0.1,17.36667c0,0 -2.43831,-1.27583 -2.97488,-2.60446c-0.31659,-0.78393 0.78878,-2.80872 0.78878,-2.80872c0,0 -1.14956,-2.46701 -1.24528,-3.918c-0.08311,-1.25978 0.78705,-3.02804 0.78705,-3.02804c0,0 -2.12982,-0.66276 -2.34092,-1.47098c-0.27894,-1.06794 1.08526,-3.33647 1.08526,-3.33647c0,0 -1.3914,-2.33705 -1.00187,-3.96089c0.27364,-1.14072 2.70117,-3.12295 2.70117,-3.12295c0,0 -1.12341,-2.10404 -0.56235,-3.1947c0.51947,-1.00983 3.33109,-2.18756 3.33109,-2.18756c0,0 1.1112,-2.58515 2.07844,-3.2157c1.57867,-1.02914 4.44514,-1.03705 4.44514,-1.03705c0,0 -6.99162,9.24711 -6.99162,16.51886z" data-paper-data="{&quot;origPos&quot;:null}" fill="#bdff66" stroke="#000000" stroke-width="1"/><path d="M236.55833,179.8629l2.4,-12.8c0,0 -1.73372,-18.48396 0.80525,-18.26041c2.11307,0.18605 1.79475,18.26041 1.79475,18.26041l2.8,12.8c0,0 -2.68285,2.4 -4.4,2.4c-1.3269,0 -3.4,-2.4 -3.4,-2.4z" data-paper-data="{&quot;origPos&quot;:null}" fill="#42a551" stroke="#000000" stroke-width="1"/><path d="M250.15833,144.0629c0,5.30193 -4.47716,9.6 -10,9.6c-5.52284,0 -10,-4.29807 -10,-9.6c0,-5.30193 4.47716,-9.6 10,-9.6c5.52284,0 10,4.29807 10,9.6z" data-paper-data="{&quot;origPos&quot;:null}" fill="url(#color-1)" stroke="#000000" stroke-width="1"/><path d="M242.25157,156.70544c0,2.62747 -0.97998,4.75746 -2.18885,4.75746c-1.20887,0 -2.18885,-2.12999 -2.18885,-4.75746c0,-2.62747 0.97998,-4.75746 2.18885,-4.75746c1.20887,0 2.18885,2.12999 2.18885,4.75746z" data-paper-data="{&quot;origPos&quot;:null,&quot;origRot&quot;:0}" fill="url(#color-2)" stroke="#000000" stroke-width="1"/><path d="M245.93068,154.1862c0.78029,2.46687 0.49276,4.85774 -0.64223,5.34015c-1.13499,0.48241 -2.68761,-1.12633 -3.46791,-3.59321c-0.78029,-2.46687 -0.49276,-4.85773 0.64223,-5.34014c1.13499,-0.4824 2.68761,1.12633 3.46791,3.5932z" data-paper-data="{&quot;origPos&quot;:null,&quot;origRot&quot;:0}" fill="url(#color-3)" stroke="#000000" stroke-width="1"/><path d="M249.5087,151.07816c1.85679,1.50693 2.79997,3.65912 2.10665,4.80706c-0.69332,1.14794 -2.7606,0.85692 -4.61739,-0.65001c-1.85679,-1.50693 -2.79997,-3.65912 -2.10665,-4.80706c0.69332,-1.14794 2.7606,-0.85692 4.61739,0.65001z" data-paper-data="{&quot;origPos&quot;:null,&quot;origRot&quot;:0}" fill="url(#color-4)" stroke="#000000" stroke-width="1"/><path d="M250.94592,145.61286c2.20579,0.60468 3.76841,2.20037 3.4902,3.56408c-0.27821,1.36371 -2.29189,1.97901 -4.49768,1.37433c-2.20579,-0.60468 -3.76841,-2.20037 -3.4902,-3.56408c0.27821,-1.36371 2.29189,-1.97901 4.49768,-1.37433z" data-paper-data="{&quot;origPos&quot;:null,&quot;origRot&quot;:0}" fill="url(#color-5)" stroke="#000000" stroke-width="1"/><path d="M251.38226,140.89322c2.26645,0.03368 4.0912,1.19688 4.0757,2.59809c-0.01549,1.40121 -1.86538,2.50979 -4.13182,2.47611c-2.26645,-0.03368 -4.0912,-1.19688 -4.0757,-2.59809c0.01549,-1.40121 1.86538,-2.50979 4.13182,-2.47611z" data-paper-data="{&quot;origPos&quot;:null,&quot;origRot&quot;:0}" fill="url(#color-6)" stroke="#000000" stroke-width="1"/><path d="M249.94787,136.12404c1.99359,-1.25023 4.07602,-1.2646 4.65123,-0.03208c0.57521,1.23252 -0.5746,3.24517 -2.56819,4.4954c-1.99359,1.25023 -4.07601,1.2646 -4.65123,0.03208c-0.57522,-1.23252 0.5746,-3.24517 2.56819,-4.4954z" data-paper-data="{&quot;origPos&quot;:null,&quot;origRot&quot;:0}" fill="url(#color-7)" stroke="#000000" stroke-width="1"/><path d="M246.81137,132.63757c1.51929,-1.94986 3.47817,-2.76909 4.37528,-1.8298c0.89711,0.93929 0.39272,3.28139 -1.12657,5.23125c-1.51929,1.94986 -3.47816,2.76909 -4.37527,1.8298c-0.89711,-0.93929 -0.39273,-3.28139 1.12656,-5.23125z" data-paper-data="{&quot;origPos&quot;:null,&quot;origRot&quot;:0}" fill="url(#color-8)" stroke="#000000" stroke-width="1"/><path d="M246.15161,133.17572c-0.66142,2.51311 -2.13493,4.21891 -3.29119,3.81c-1.15626,-0.40892 -1.55741,-2.77769 -0.89599,-5.29081c0.66142,-2.51311 2.13493,-4.21891 3.29119,-3.81c1.15626,0.40891 1.5574,2.77769 0.89598,5.2908z" data-paper-data="{&quot;origPos&quot;:null,&quot;origRot&quot;:0}" fill="url(#color-9)" stroke="#000000" stroke-width="1"/><path d="M237.76482,132.15894c0,-2.62747 0.97998,-4.75746 2.18886,-4.75746c1.20888,0 2.18885,2.12999 2.18885,4.75746c0,2.62747 -0.97998,4.75745 -2.18885,4.75745c-1.20888,0 -2.18886,-2.12999 -2.18886,-4.75745z" data-paper-data="{&quot;origPos&quot;:null,&quot;origRot&quot;:0,&quot;index&quot;:null}" fill="url(#color-10)" stroke="#000000" stroke-width="1"/><path d="M233.88571,133.87818c-0.78029,-2.46687 -0.49275,-4.85774 0.64223,-5.34014c1.13499,-0.4824 2.68761,1.12633 3.4679,3.5932c0.78029,2.46687 0.49276,4.85774 -0.64223,5.34014c-1.13499,0.48241 -2.68761,-1.12633 -3.4679,-3.5932z" data-paper-data="{&quot;origPos&quot;:null,&quot;origRot&quot;:0,&quot;index&quot;:null}" fill="url(#color-11)" stroke="#000000" stroke-width="1"/><path d="M230.85421,137.03159c-1.70844,-1.72672 -2.44938,-3.98274 -1.65492,-5.03896c0.79445,-1.05622 2.82343,-0.51267 4.53187,1.21405c1.70844,1.72672 2.44938,3.98274 1.65493,5.03896c-0.79445,1.05622 -2.82344,0.51267 -4.53188,-1.21405z" data-paper-data="{&quot;origPos&quot;:null,&quot;origRot&quot;:0,&quot;index&quot;:null}" fill="url(#color-12)" stroke="#000000" stroke-width="1"/><path d="M228.48002,141.66392c-2.06887,-1.07337 -3.34567,-2.98039 -2.85182,-4.25944c0.49384,-1.27905 2.57134,-1.44579 4.64021,-0.37242c2.06887,1.07337 3.34567,2.98039 2.85183,4.25944c-0.49384,1.27905 -2.57134,1.44579 -4.64021,0.37242z" data-paper-data="{&quot;origPos&quot;:null,&quot;origRot&quot;:0,&quot;index&quot;:null}" fill="url(#color-13)" stroke="#000000" stroke-width="1"/><path d="M228.43413,147.17116c-2.26645,-0.03368 -4.0912,-1.19688 -4.0757,-2.59809c0.01549,-1.40121 1.86537,-2.5098 4.13182,-2.47612c2.26645,0.03368 4.09121,1.19688 4.07571,2.59809c-0.01549,1.40121 -1.86538,2.50981 -4.13182,2.47612z" data-paper-data="{&quot;origPos&quot;:null,&quot;origRot&quot;:0,&quot;index&quot;:null}" fill="url(#color-14)" stroke="#000000" stroke-width="1"/><path d="M229.86852,151.94034c-1.99358,1.25023 -4.07602,1.2646 -4.65123,0.03208c-0.57522,-1.23252 0.5746,-3.24517 2.56819,-4.4954c1.99358,-1.25023 4.07602,-1.2646 4.65124,-0.03208c0.57522,1.23252 -0.57461,3.24518 -2.56819,4.49541z" data-paper-data="{&quot;origPos&quot;:null,&quot;origRot&quot;:0,&quot;index&quot;:null}" fill="url(#color-15)" stroke="#000000" stroke-width="1"/><path d="M233.00502,155.42681c-1.51929,1.94986 -3.47817,2.76909 -4.37528,1.8298c-0.89711,-0.93929 -0.39273,-3.28139 1.12657,-5.23125c1.51929,-1.94986 3.47817,-2.76908 4.37528,-1.8298c0.89711,0.93929 0.39272,3.28139 -1.12657,5.23124z" data-paper-data="{&quot;origPos&quot;:null,&quot;origRot&quot;:0,&quot;index&quot;:null}" fill="url(#color-16)" stroke="#000000" stroke-width="1"/><path d="M233.66478,154.88867c0.66142,-2.51311 2.13493,-4.21892 3.29119,-3.81c1.15626,0.40892 1.5574,2.77769 0.89598,5.29081c-0.66142,2.51311 -2.13493,4.21892 -3.29119,3.81c-1.15626,-0.40892 -1.5574,-2.77769 -0.89598,-5.29081z" data-paper-data="{&quot;origPos&quot;:null,&quot;origRot&quot;:0,&quot;index&quot;:null}" fill="url(#color-17)" stroke="#000000" stroke-width="1"/><g data-paper-data="{&quot;origPos&quot;:null}" fill="#a0d856" stroke="#000000" stroke-width="1"><path d="M244.58145,139.16769l0.09948,8.60576l-7.91477,1.04838l-0.65166,-9.55627z" data-paper-data="{&quot;origPos&quot;:null,&quot;origRot&quot;:0}"/><path d="M243.9127,147.36587l0.04733,4.09468l-7.63415,0.08824l-0.04733,-4.09468z" data-paper-data="{&quot;origPos&quot;:null,&quot;origRot&quot;:0}"/><path d="M240.22841,146.88787c0,0 1.88455,-0.50634 2.64193,-1.01585c0.69629,-0.46841 1.55997,-1.21916 2.39909,-1.22885c1.83981,-0.02127 3.34293,0.97133 3.35733,2.21704c0.0144,1.2457 -2.41936,3.81085 -4.25916,3.83211c-1.83981,0.02127 -4.1392,-3.80444 -4.1392,-3.80444z" data-paper-data="{&quot;origPos&quot;:null,&quot;origRot&quot;:0}"/><path d="M240.17746,148.48491c0,0 -1.06024,-1.41317 -1.78157,-2.14268c-1.26114,-1.27548 -0.30892,-3.62893 -2.10249,-3.6082c-1.60983,0.01861 -4.4829,2.49039 -4.46495,4.04272c0.01794,1.55233 1.33751,2.79567 2.94734,2.77706c1.60983,-0.01861 5.40167,-1.06889 5.40167,-1.06889z" data-paper-data="{&quot;origPos&quot;:null,&quot;origRot&quot;:0}"/><path d="M241.24054,150.38141c-0.01217,-1.05275 0.1969,-2.65163 0.1969,-2.65163c0,0 1.70178,0.82501 2.8706,0.8115c2.35725,-0.02725 4.055,-0.47694 4.07361,1.13289c0.01861,1.60983 -1.87723,2.93694 -4.23448,2.96419c-2.35725,0.02725 -2.88802,-0.64712 -2.90663,-2.25695z" data-paper-data="{&quot;origPos&quot;:null,&quot;origRot&quot;:0}"/><path d="M241.40784,140.83552c-0.02813,-2.43391 -0.06443,-2.60215 1.94786,-2.62541c2.01229,-0.02326 3.66638,1.93096 3.69451,4.36487c0.01841,1.59295 -1.15449,1.49593 -2.55903,2.24766c-0.8587,0.45959 -2.56685,1.66388 -2.56685,1.66388c0,0 0.15436,-1.10235 -0.31806,-1.6732c-0.70372,-0.85034 -0.17029,-1.54389 -0.19843,-3.9778z" data-paper-data="{&quot;origPos&quot;:null,&quot;origRot&quot;:0}"/><path d="M232.37708,139.44627c1.54884,-1.33436 3.87811,-3.39967 7.71104,-3.44398c0.92578,-0.0107 3.38458,0.64117 4.2714,0.90711c1.53751,0.46108 4.22719,4.28914 4.22719,4.28914c0,0 -3.20838,0.22279 -5.00607,0.70955c-1.25675,1.36492 -6.8264,4.54432 -10.65933,4.58863l-2.80783,0.75103c0,0 -0.14182,-5.72917 2.2636,-7.80148z" data-paper-data="{&quot;origPos&quot;:null,&quot;origRot&quot;:0}"/><path d="M230.47689,145.19461c0.77834,-0.4364 1.52839,0.40997 1.52839,0.40997c0,0 0.63873,-0.68244 1.12588,-0.74993c0.4972,-0.06888 1.39637,0.40052 1.39637,0.40052c0,0 0.54028,-0.51352 1.03672,-0.6218c0.4714,-0.10282 1.44325,0.08086 1.44325,0.08086c0,0 0.66519,-0.51899 1.16669,-0.70395c0.46846,-0.17278 1.31871,-0.21272 1.31871,-0.21272c0,0 0.30636,-1.09422 0.75757,-1.46729c0.53587,-0.44307 2.52624,0.08456 2.52624,0.08456c0,0 -1.85168,1.29432 -3.20488,2.07851c-1.31101,0.75974 -1.9585,1.60209 -3.47363,1.61961l-6.06972,0.92463c0,0 -0.70098,-1.19852 0.44841,-1.84297z" data-paper-data="{&quot;origPos&quot;:null,&quot;origRot&quot;:0}"/><path d="M241.82112,153.82078c-2.34365,0.1914 -0.65592,-0.05191 -3.3786,-0.05349c-2.47451,-0.39676 -3.02166,-0.45995 -4.34095,-1.07461c-1.38657,-0.29458 -2.48095,-1.82416 -3.57738,-3.59806c-1.29583,-2.84264 -0.32708,-5.53179 -0.32708,-5.53179c0,0 1.98735,3.35561 5.31265,4.6855c3.32531,1.32988 2.2482,0.96889 3.9052,1.57444c1.76131,0.64367 6.79308,2.67609 6.79308,2.67609c0,0 0.0197,0.23827 -4.38691,1.32191z" data-paper-data="{&quot;origPos&quot;:null,&quot;origRot&quot;:0}"/><path d="M235.60259,149.02366c0,0 -0.98131,0.21537 -1.21424,-0.05118c-0.24747,-0.2832 -0.43474,-1.49149 -0.43474,-1.49149l9.45241,4.09008c0,0 -0.9154,0.25426 -1.19189,0.28014c-0.5488,0.05137 -1.34326,-0.42437 -1.34326,-0.42437c0,0 -1.12312,0.32683 -1.26759,0.26282c-1.13284,-0.50191 -0.88918,-1.37203 -0.88918,-1.37203c0,0 -1.74426,0.24687 -2.10913,0.08522c-0.35972,-0.15938 -1.00238,-1.37919 -1.00238,-1.37919z" data-paper-data="{&quot;origPos&quot;:null,&quot;origRot&quot;:0}"/><path d="M246.00729,137.66914c0.99724,0.98571 -0.80676,-1.09132 1.63674,1.48498c1.29402,1.36435 1.70726,0.31831 2.74239,5.22929c0.37253,1.7674 -0.5963,5.09511 -1.79543,6.44588c-1.79489,2.02187 -5.44233,2.30133 -5.44233,2.30133c0,0 2.65691,-4.77317 2.26223,-7.00963c-0.01915,-1.65718 -0.00554,-1.85088 -0.03744,-3.23872c-0.03409,-1.48318 -2.12597,-6.3136 -2.12597,-6.3136c0,0 0.08429,-0.17894 2.75982,1.10048z" data-paper-data="{&quot;origPos&quot;:null,&quot;origRot&quot;:0}"/><path d="M245.14998,147.57005c-0.02917,-2.52335 -0.03496,-6.02675 -0.03496,-6.02675c0,0 0.85123,0.43294 1.04275,0.89183c0.113,0.27076 -0.26245,0.97781 -0.26245,0.97781c0,0 0.40879,0.85145 0.44783,1.35458c0.03389,0.43682 -0.26096,1.0539 -0.26096,1.0539c0,0 0.74172,0.22144 0.81822,0.50105c0.10108,0.36946 -0.36321,1.16213 -0.36321,1.16213c0,0 0.4922,0.80539 0.36354,1.37043c-0.09038,0.39694 -0.92479,1.09452 -0.92479,1.09452c0,0 0.39827,0.72561 0.20795,1.10633c-0.17621,0.3525 -1.14714,0.77246 -1.14714,0.77246c0,0 -0.37522,0.90152 -0.70833,1.1242c-0.54368,0.36345 -1.53833,0.37769 -1.53833,0.37769c0,0 2.38904,-3.23685 2.35988,-5.7602z" data-paper-data="{&quot;origPos&quot;:null,&quot;origRot&quot;:0}"/></g><path d="M240.75833,209.4629c-1.2,2.38627 -5.34222,2.1622 -7.4,1.8c-3.25625,-0.57316 -6.17543,-2.34565 -8.47778,-4.71859c-2.1868,-2.25385 -1.59962,-3.80284 -4.21871,-5.53556c-3.76347,-2.48982 -7.30352,-1.94584 -7.30352,-1.94584c0,0 7.56754,-0.39197 15.8,2.6c3.26705,1.18736 13.7835,3.458 11.6,7.8z" data-paper-data="{&quot;origPos&quot;:null}" fill="#42a551" stroke="#000000" stroke-width="1"/><path d="M251.25405,201.2629c8.23245,-2.99197 15.8,-2.6 15.8,-2.6c0,0 -3.54004,-0.54398 -7.30351,1.94584c-2.61909,1.73272 -2.03191,3.28171 -4.21871,5.53556c-2.30235,2.37294 -5.22153,4.14544 -8.47778,4.7186c-2.05778,0.3622 -6.2,0.58627 -7.4,-1.8c-2.18349,-4.342 8.33295,-6.61264 11.6,-7.8z" data-paper-data="{&quot;origPos&quot;:null,&quot;index&quot;:null}" fill="#42a551" stroke="#000000" stroke-width="1"/><g data-paper-data="{&quot;origPos&quot;:null}" stroke="none" stroke-width="0"><path d="M236.57212,197.46289c0,2.09868 -1.29065,3.8 -2.88276,3.8c-1.5921,0 -2.88276,-1.70132 -2.88276,-3.8c0,-2.09868 1.29065,-3.8 2.88276,-3.8c1.5921,0 2.88276,1.70132 2.88276,3.8z" data-paper-data="{&quot;origPos&quot;:null}" fill="#000000"/><path d="M233.95143,196.41462c0,0.79605 -0.41066,1.44138 -0.91724,1.44138c-0.50658,0 -0.91724,-0.64533 -0.91724,-1.44138c0,-0.79605 0.41066,-1.44138 0.91724,-1.44138c0.50658,0 0.91724,0.64533 0.91724,1.44138z" data-paper-data="{&quot;origPos&quot;:null}" fill="#ffffff"/></g><g data-paper-data="{&quot;origPos&quot;:null}" stroke="none" stroke-width="0"><path d="M250.15833,197.4629c0,2.09868 -1.29066,3.8 -2.88276,3.8c-1.5921,0 -2.88276,-1.70132 -2.88276,-3.8c0,-2.09868 1.29066,-3.8 2.88276,-3.8c1.5921,0 2.88276,1.70132 2.88276,3.8z" data-paper-data="{&quot;origPos&quot;:null}" fill="#000000"/><path d="M247.53764,196.41462c0,0.79605 -0.41066,1.44138 -0.91724,1.44138c-0.50658,0 -0.91724,-0.64533 -0.91724,-1.44138c0,-0.79605 0.41066,-1.44138 0.91724,-1.44138c0.50658,0 0.91724,0.64533 0.91724,1.44138z" data-paper-data="{&quot;origPos&quot;:null}" fill="#ffffff"/></g></g></g></svg>