<svg version="1.1" xmlns="http://www.w3.org/2000/svg" xmlns:xlink="http://www.w3.org/1999/xlink" width="109.19016" height="83.9649" viewBox="0,0,109.19016,83.9649"><defs><linearGradient x1="220.5" y1="216.75004" x2="274.5" y2="216.75004" gradientUnits="userSpaceOnUse" id="color-1"><stop offset="0" stop-color="#bdfff9"/><stop offset="1" stop-color="#25ccca"/></linearGradient><radialGradient cx="247" cy="183.30378" r="57.5" gradientUnits="userSpaceOnUse" id="color-2"><stop offset="0" stop-color="#00a9db"/><stop offset="1" stop-color="#77c8db"/></radialGradient><linearGradient x1="195.33334" y1="212.84413" x2="232.33333" y2="212.84413" gradientUnits="userSpaceOnUse" id="color-3"><stop offset="0" stop-color="#ffffff"/><stop offset="1" stop-color="#4ebddb"/></linearGradient><linearGradient x1="301" y1="212.48929" x2="264" y2="212.48929" gradientUnits="userSpaceOnUse" id="color-4"><stop offset="0" stop-color="#ffffff"/><stop offset="1" stop-color="#4ebddb"/></linearGradient></defs><g transform="translate(-193.57159,-167.41667)"><g data-paper-data="{&quot;isPaintingLayer&quot;:true}" fill="none" fill-rule="nonzero" stroke="none" stroke-width="none" stroke-linecap="none" stroke-linejoin="miter" stroke-miterlimit="10" stroke-dasharray="" stroke-dashoffset="0" font-family="none" font-weight="none" font-size="none" text-anchor="none" style="mix-blend-mode: normal"><path d="M220.5,238.50004l4,-43.5l46.5,-0.5l3.5,44c0,0 -8.7918,9.45994 -26,10c-18.86253,0.59198 -28,-10 -28,-10z" data-paper-data="{&quot;origPos&quot;:null}" fill="url(#color-1)" stroke="#000000" stroke-width="2.5" stroke-linecap="butt"/><path d="M229.5,234.16669c0,0 3.44938,-3.13418 5.59177,-2.12813c3.06116,1.4375 8.17965,-1.87187 13.40823,-1.87187c5.51299,0 11.28992,3.59987 13.88139,1.96432c1.92242,-1.21329 5.61861,2.03568 5.61861,2.03568" data-paper-data="{&quot;origPos&quot;:null}" fill="none" stroke="#000000" stroke-width="1.5" stroke-linecap="round"/><g stroke-linecap="butt"><path d="M250.66667,222.33336l18,-2c0,0 -0.38772,6.56092 -9.68205,5.38975c-4.00725,-0.50495 -8.31795,-3.38975 -8.31795,-3.38975z" data-paper-data="{&quot;origPos&quot;:null}" fill="#ffffff" stroke="#000000" stroke-width="1.5"/><path d="M263.33333,223.33336c0,0.92048 -0.74619,1.66666 -1.66667,1.66666c-0.92048,0 -1.66667,-0.74619 -1.66667,-1.66666c0,-0.92048 0.74619,-1.66667 1.66667,-1.66667c0.92048,0 1.66667,0.7462 1.66667,1.66667z" data-paper-data="{&quot;origPos&quot;:null}" fill="#20515a" stroke="none" stroke-width="0"/></g><g data-paper-data="{&quot;index&quot;:null,&quot;origPos&quot;:null}" stroke-linecap="butt"><path d="M236.68205,226.05646c-9.29433,1.17118 -9.68205,-5.38974 -9.68205,-5.38974l18,2c0,0 -4.3107,2.88479 -8.31795,3.38974z" data-paper-data="{&quot;origPos&quot;:null}" fill="#ffffff" stroke="#000000" stroke-width="1.5"/><path d="M234,222.00004c0.92048,0 1.66666,0.7462 1.66666,1.66667c0,0.92048 -0.74619,1.66666 -1.66666,1.66666c-0.92048,0 -1.66667,-0.74619 -1.66667,-1.66666c0,-0.92048 0.7462,-1.66667 1.66667,-1.66667z" data-paper-data="{&quot;origPos&quot;:null}" fill="#20515a" stroke="none" stroke-width="0"/></g><path d="M289.83333,189.69087c5.77963,9.80464 5.09969,16.53431 5.09969,16.53431c0,0 -14.74492,15.86303 -46.93302,15.6673c-36.42427,-0.22149 -47.45998,-16.22187 -47.45998,-16.22187c0,0 -0.91139,-11.65477 3.95998,-18.10878c9,-9.91191 17.24363,-18.89516 42.5,-18.89516c23.75637,0 34.16667,6.32196 42.83333,21.02419z" data-paper-data="{&quot;origPos&quot;:null}" fill="url(#color-2)" stroke="#000000" stroke-width="2.5" stroke-linecap="butt"/><path d="M219.66667,238.6667l5,-1l2.27428,2.85495l2.35444,0.20408l2.03752,2.61945l3.01031,-1.50959l3.99104,2.6382l4.08387,-1.81927l2.91877,3.40904l3.48529,-3.21153l2.57627,2.42882l4.10894,-2.86653l4.15926,2.58571l3.72292,-2.50142l2.5381,0.70097l3.76006,-2.86842l1.84469,-2.93266l3.46757,1.60152l-10.46581,8.48106l-16.40252,3.1366l-16.79834,-3.28433z" data-paper-data="{&quot;origPos&quot;:null}" fill="#4ebddb" stroke="#000000" stroke-width="1.5" stroke-linecap="butt"/><path d="M261.66667,178.1667c0,4.51032 -6.34263,8.16667 -14.16667,8.16667c-7.82404,0 -14.16666,-3.65635 -14.16666,-8.16667c0,-4.51032 6.34263,-8.16666 14.16666,-8.16666c7.82404,0 14.16667,3.65634 14.16667,8.16666z" data-paper-data="{&quot;origPos&quot;:null}" fill="#1194bc" stroke="none" stroke-width="NaN" stroke-linecap="butt"/><path d="M273.00001,177.66669c0,0 -2.17028,16.66667 -25.66667,16.66667c-25.08991,0 -25.33334,-17.33334 -25.33334,-17.33334" data-paper-data="{&quot;origPos&quot;:null}" fill="none" stroke="#1194bc" stroke-width="7.5" stroke-linecap="round"/><path d="M283.33334,183.00004c0,0 1.35576,21.06838 -34.99745,21.82817c-40.61875,-1.77445 -37.00255,-22.1615 -37.00255,-22.1615" data-paper-data="{&quot;origPos&quot;:null}" fill="none" stroke="#1194bc" stroke-width="5" stroke-linecap="round"/><path d="M291,195.00004c0,0 -9.29085,18.73627 -42.33408,18.35828c-35.36429,-0.40454 -46.33259,-19.69161 -46.33259,-19.69161" data-paper-data="{&quot;origPos&quot;:null}" fill="none" stroke="#1194bc" stroke-width="3.5" stroke-linecap="round"/><path d="M289.83333,189.69087c5.77963,9.80464 5.09969,16.53431 5.09969,16.53431c0,0 -14.74492,15.86303 -46.93302,15.6673c-36.42427,-0.22149 -47.45998,-16.22187 -47.45998,-16.22187c0,0 -0.91139,-11.65477 3.95998,-18.10878c9,-9.91191 17.24363,-18.89516 42.5,-18.89516c23.75637,0 34.16667,6.32196 42.83333,21.02419z" data-paper-data="{&quot;origPos&quot;:null}" fill="none" stroke="#000000" stroke-width="2.5" stroke-linecap="butt"/><path d="M195.33334,212.07107l3.81453,-4.21929l-2.64786,-2.93135l4.5,-2.89891l8.94651,8.26154l11.61686,5.00372l10.76996,3.35514c0,0 -5.23932,1.36514 -6.67261,2.13678c-2.20917,1.18935 -2.66072,2.88799 -2.66072,2.88799l-5.22726,-5.08699l-6.76797,1.00854l-2.24044,-4.52674l-6.59742,1.39289l2.18279,-4.79058z" data-paper-data="{&quot;origPos&quot;:null}" fill="url(#color-3)" stroke="#000000" stroke-width="1.5" stroke-linecap="butt"/><path d="M291.98363,211.30898l2.18279,4.79058l-6.59742,-1.39289l-2.24044,4.52674l-6.76797,-1.00854l-5.22726,5.08699c0,0 -0.45155,-1.03197 -2.66072,-2.22132c-1.43329,-0.77164 -6.67261,-2.80345 -6.67261,-2.80345l10.76996,-3.35514l11.61686,-5.00372l8.94651,-8.26154l4.5,2.89891l-2.64786,2.93135l3.81453,4.21929z" data-paper-data="{&quot;origPos&quot;:null,&quot;index&quot;:null}" fill="url(#color-4)" stroke="#000000" stroke-width="1.5" stroke-linecap="butt"/></g></g></svg>