<svg version="1.1" xmlns="http://www.w3.org/2000/svg" xmlns:xlink="http://www.w3.org/1999/xlink" width="109.49539" height="87.72253" viewBox="0,0,109.49539,87.72253"><defs><linearGradient x1="220.50002" y1="216.75" x2="274.50002" y2="216.75" gradientUnits="userSpaceOnUse" id="color-1"><stop offset="0" stop-color="#bdfff9"/><stop offset="1" stop-color="#25ccca"/></linearGradient><radialGradient cx="247.62102" cy="183.52999" r="64.35246" gradientUnits="userSpaceOnUse" id="color-2"><stop offset="0" stop-color="#77c8db"/><stop offset="1" stop-color="#1453af"/></radialGradient></defs><g transform="translate(-193.16014,-163.65901)"><g data-paper-data="{&quot;isPaintingLayer&quot;:true}" fill="none" fill-rule="nonzero" stroke="none" stroke-width="none" stroke-linecap="none" stroke-linejoin="miter" stroke-miterlimit="10" stroke-dasharray="" stroke-dashoffset="0" font-family="none" font-weight="none" font-size="none" text-anchor="none" style="mix-blend-mode: normal"><path d="M220.50002,238.5l4,-43.5l46.5,-0.5l3.5,44c0,0 -8.7918,9.45994 -26,10c-18.86253,0.59198 -28,-10 -28,-10z" data-paper-data="{&quot;origPos&quot;:null}" fill="url(#color-1)" stroke="#000000" stroke-width="2.5" stroke-linecap="butt"/><path d="M229.50002,234.16666c0,0 3.44938,-3.13418 5.59177,-2.12813c3.06116,1.4375 8.17965,-1.87187 13.40823,-1.87187c5.51299,0 11.28992,3.59987 13.88139,1.96432c1.92242,-1.21329 5.61861,2.03568 5.61861,2.03568" data-paper-data="{&quot;origPos&quot;:null}" fill="none" stroke="#000000" stroke-width="1.5" stroke-linecap="round"/><g stroke-linecap="butt"><path d="M250.66669,222.33334l18,-2c0,0 -0.38772,6.56092 -9.68205,5.38975c-4.00725,-0.50495 -8.31795,-3.38975 -8.31795,-3.38975z" data-paper-data="{&quot;origPos&quot;:null}" fill="#ffffff" stroke="#000000" stroke-width="1.5"/><path d="M263.33333,223.33334c0,0.92048 -0.74619,1.66666 -1.66667,1.66666c-0.92048,0 -1.66667,-0.74619 -1.66667,-1.66666c0,-0.92048 0.74619,-1.66667 1.66667,-1.66667c0.92048,0 1.66667,0.7462 1.66667,1.66667z" data-paper-data="{&quot;origPos&quot;:null}" fill="#20515a" stroke="none" stroke-width="0"/></g><g data-paper-data="{&quot;index&quot;:null,&quot;origPos&quot;:null}" stroke-linecap="butt"><path d="M236.68207,226.05642c-9.29433,1.17118 -9.68205,-5.38974 -9.68205,-5.38974l18,2c0,0 -4.3107,2.88479 -8.31795,3.38974z" data-paper-data="{&quot;origPos&quot;:null}" fill="#ffffff" stroke="#000000" stroke-width="1.5"/><path d="M234.00002,222c0.92048,0 1.66666,0.7462 1.66666,1.66667c0,0.92048 -0.74619,1.66666 -1.66666,1.66666c-0.92048,0 -1.66667,-0.74619 -1.66667,-1.66666c0,-0.92048 0.7462,-1.66667 1.66667,-1.66667z" data-paper-data="{&quot;origPos&quot;:null}" fill="#20515a" stroke="none" stroke-width="0"/></g><path d="M219.66669,238.66667l5,-1l2.27428,2.85495l2.35444,0.20408l2.03752,2.61945l3.01031,-1.50959l3.99104,2.6382l4.08387,-1.81927l2.91877,3.40904l3.48529,-3.21153l2.57627,2.42882l4.10894,-2.86653l4.15926,2.58571l3.72292,-2.50142l2.5381,0.70097l3.76006,-2.86842l1.84469,-2.93266l3.46757,1.60152l-10.46581,8.48106l-16.40252,3.1366l-16.79834,-3.28433z" data-paper-data="{&quot;origPos&quot;:null}" fill="#4ebddb" stroke="#000000" stroke-width="1.5" stroke-linecap="butt"/><path d="M285.85943,199.15826l13.67827,-1.70946l1.72866,8.86821l-6.98587,4.48788l-12.15023,-2.62668l9.02896,2.23996l-3.32625,5.824l-8.27251,-0.55823c0,0 -18.27443,6.27627 -30.82028,6.20851c-17.19695,-0.09288 -30.97475,-6.17223 -30.97475,-6.17223l-11.25572,0.4251l-1.97065,-8.12751l8.99196,0.73027l-15.07897,-0.76271l-3.61871,-9.94957l8.89442,-1.75886l9.50183,0.79841l-5.58724,-0.95755l-4.65897,-6.37664l4.45067,-1.75398l5.75217,1.81877l-4.12504,-3.70414l2.19282,-12.96888l11.12043,1.35353l8.22652,5.81069l-5.17198,-5.22013l5.40445,-5.767l7.03143,6.04036l1.08218,3.76898l-1.09829,-7.09583l7.18234,-6.65494l8.00719,7.52344l0.59428,3.178l2.99333,-7.69278l11.7616,-1.48335l9.98727,7.57959l-5.16077,12.44469l4.79166,-10.68746l6.96638,2.61725l0.16206,4.53824l-6.52019,3.31105l7.42884,-2.21534l12.50065,4.40354l-4.85567,8.69747z" data-paper-data="{&quot;origPos&quot;:null}" fill="url(#color-2)" stroke="#000000" stroke-width="2.5" stroke-linecap="butt"/><path d="M222.25307,209.73834l-5.96892,-2.31965l-0.41634,-7.14849l6.72085,1.36199l5.21789,0.36031l-4.48218,-3.51437l-0.0842,-10.80046l9.38084,4.33801l3.30286,2.39562l-2.12572,-6.48107l6.52741,-3.71541c0,0 3.2756,2.1731 5.61093,3.7761c1.81901,1.2486 2.41982,6.18503 2.41982,6.18503l0.13031,-4.17385l1.12929,-4.63719l9.62802,-2.76578l4.93711,5.85052l-2.78881,6.12099l5.44641,-4.01791l8.32094,-0.94439l-1.57145,8.47479l-3.2446,3.28584l8.53287,-4.22587l4.52463,4.70989l-3.31376,5.88721l-5.97916,1.99815" data-paper-data="{&quot;origPos&quot;:null}" fill="none" stroke="#000000" stroke-width="1.5" stroke-linecap="round"/><path d="M236.80232,211.06386v-7.29034l12.31091,-2.65104l11.93785,2.65104l0.37305,6.95896l-11.94632,3.81098z" data-paper-data="{&quot;origPos&quot;:null}" fill="#004c90" stroke="#000000" stroke-width="1.5" stroke-linecap="butt"/><path d="M242.02513,209.88903v-4.19747l7.08809,-1.52636l6.87331,1.52636l0.21479,4.00667l-6.87818,2.1942z" data-paper-data="{&quot;origPos&quot;:null}" fill="#00335f" stroke="#000000" stroke-width="1" stroke-linecap="butt"/><path d="M256.20133,205.43041l3.73057,-1.32551" data-paper-data="{&quot;origPos&quot;:null}" fill="none" stroke="#000000" stroke-width="1" stroke-linecap="round"/><path d="M261.05108,210.40111l-4.84975,-0.66276" data-paper-data="{&quot;origPos&quot;:null}" fill="none" stroke="#000000" stroke-width="1" stroke-linecap="round"/><path d="M249.11322,213.71489l-0.37305,-1.98827" data-paper-data="{&quot;origPos&quot;:null}" fill="none" stroke="#000000" stroke-width="1" stroke-linecap="round"/><path d="M241.65208,209.73834l-4.47669,0.66276" data-paper-data="{&quot;origPos&quot;:null}" fill="none" stroke="#000000" stroke-width="1" stroke-linecap="round"/><path d="M236.80232,204.1049l4.84975,1.6569" data-paper-data="{&quot;origPos&quot;:null}" fill="none" stroke="#000000" stroke-width="1" stroke-linecap="round"/><path d="M248.36711,203.77352l-0.37305,-1.98827" data-paper-data="{&quot;origPos&quot;:null}" fill="none" stroke="#000000" stroke-width="1" stroke-linecap="round"/><path d="M272.24281,175.93767h-8.20727l-4.10364,-2.98241" data-paper-data="{&quot;origPos&quot;:null}" fill="none" stroke="#ffffff" stroke-width="0.5" stroke-linecap="round"/><path d="M249.85934,174.28077l-4.84975,1.98827l-2.98447,-2.31965" data-paper-data="{&quot;origPos&quot;:null}" fill="none" stroke="#ffffff" stroke-width="0.5" stroke-linecap="round"/><path d="M245.0096,179.25146v-3.31379" data-paper-data="{&quot;origPos&quot;:null}" fill="none" stroke="#ffffff" stroke-width="0.5" stroke-linecap="round"/><path d="M221.50695,177.59456l-1.11917,4.30793l-8.20727,2.65104" data-paper-data="{&quot;origPos&quot;:null}" fill="none" stroke="#ffffff" stroke-width="0.5" stroke-linecap="round"/><path d="M225.23753,184.55352l-4.84975,-2.98241l-6.34199,-5.30206" data-paper-data="{&quot;origPos&quot;:null}" fill="none" stroke="#ffffff" stroke-width="0.5" stroke-linecap="round"/><path d="M262.5433,180.90836l1.49223,-4.97069l2.98447,-5.96482" data-paper-data="{&quot;origPos&quot;:null}" fill="none" stroke="#ffffff" stroke-width="0.5" stroke-linecap="round"/><path d="M291.64181,195.15766l-6.71504,-2.65104v-5.30206" data-paper-data="{&quot;origPos&quot;:null}" fill="none" stroke="#ffffff" stroke-width="0.5" stroke-linecap="round"/><path d="M293.13404,190.51835l-8.20727,1.6569h-4.10364" data-paper-data="{&quot;origPos&quot;:null}" fill="none" stroke="#ffffff" stroke-width="0.5" stroke-linecap="round"/><path d="M235.31009,176.60042l-2.23835,0.66276l-2.23835,-3.97655" data-paper-data="{&quot;origPos&quot;:null}" fill="none" stroke="#ffffff" stroke-width="0.5" stroke-linecap="round"/><path d="M233.07175,179.58284l-0.37305,-2.31965" data-paper-data="{&quot;origPos&quot;:null}" fill="none" stroke="#ffffff" stroke-width="0.5" stroke-linecap="round"/><path d="M211.06134,204.1049l-4.84975,-0.99414l-2.23835,-3.97655" data-paper-data="{&quot;origPos&quot;:null}" fill="none" stroke="#ffffff" stroke-width="0.5" stroke-linecap="round"/><path d="M199.49655,200.12836l6.34199,2.65103l-3.73057,2.98241" data-paper-data="{&quot;origPos&quot;:null}" fill="none" stroke="#ffffff" stroke-width="0.5" stroke-linecap="round"/><path d="M215.91109,193.50076l-5.22281,-0.66276l-2.23835,-2.31965" data-paper-data="{&quot;origPos&quot;:null}" fill="none" stroke="#ffffff" stroke-width="0.5" stroke-linecap="round"/><path d="M260.67801,189.19285l-5.59587,0.66275l-2.98445,-2.31965" data-paper-data="{&quot;origPos&quot;:null}" fill="none" stroke="#ffffff" stroke-width="0.5" stroke-linecap="round"/><path d="M254.7091,189.52422v3.97655" data-paper-data="{&quot;origPos&quot;:null}" fill="none" stroke="#ffffff" stroke-width="0.5" stroke-linecap="round"/><path d="M270.75058,197.8087l-4.10364,-1.32551v-2.98241" data-paper-data="{&quot;origPos&quot;:null}" fill="none" stroke="#ffffff" stroke-width="0.5" stroke-linecap="round"/><path d="M267.02,197.14593l-2.98447,1.98827" data-paper-data="{&quot;origPos&quot;:null}" fill="none" stroke="#ffffff" stroke-width="0.5" stroke-linecap="round"/><path d="M245.00959,189.19284l-5.2228,2.31966l-3.35752,-1.98827" data-paper-data="{&quot;origPos&quot;:null}" fill="none" stroke="#ffffff" stroke-width="0.5" stroke-linecap="round"/><path d="M240.15985,195.48905v-3.64517" data-paper-data="{&quot;origPos&quot;:null}" fill="none" stroke="#ffffff" stroke-width="0.5" stroke-linecap="round"/><path d="M230.08729,193.16938l0.37305,3.3138l-4.47669,1.32551" data-paper-data="{&quot;origPos&quot;:null}" fill="none" stroke="#ffffff" stroke-width="0.5" stroke-linecap="round"/><path d="M230.46035,196.48318l2.23835,2.31965" data-paper-data="{&quot;origPos&quot;:null}" fill="none" stroke="#ffffff" stroke-width="0.5" stroke-linecap="round"/><path d="M222.62612,202.77938v2.98241l-2.98445,0.99414" data-paper-data="{&quot;origPos&quot;:null}" fill="none" stroke="#ffffff" stroke-width="0.5" stroke-linecap="round"/><path d="M221.50696,205.43042l2.98447,0.33138" data-paper-data="{&quot;origPos&quot;:null}" fill="none" stroke="#ffffff" stroke-width="0.5" stroke-linecap="round"/><path d="M278.95786,205.43042l-2.98447,-1.32552l0.37305,-3.97655" data-paper-data="{&quot;origPos&quot;:null}" fill="none" stroke="#ffffff" stroke-width="0.5" stroke-linecap="round"/><path d="M275.60033,203.77352l-3.73057,1.32552" data-paper-data="{&quot;origPos&quot;:null}" fill="none" stroke="#ffffff" stroke-width="0.5" stroke-linecap="round"/><path d="M293.5071,207.75007l-2.23835,-3.31379l3.73057,-3.3138" data-paper-data="{&quot;origPos&quot;:null}" fill="none" stroke="#ffffff" stroke-width="0.5" stroke-linecap="round"/><path d="M287.16512,203.44214l4.84975,0.33138" data-paper-data="{&quot;origPos&quot;:null}" fill="none" stroke="#ffffff" stroke-width="0.5" stroke-linecap="round"/><path d="M281.94231,182.56527l-2.98447,-0.33139v-2.31966" data-paper-data="{&quot;origPos&quot;:null}" fill="none" stroke="#ffffff" stroke-width="0.5" stroke-linecap="round"/><path d="M208.823,194.16353l1.86528,-1.32552" data-paper-data="{&quot;origPos&quot;:null}" fill="none" stroke="#ffffff" stroke-width="0.5" stroke-linecap="round"/><path d="M227.47588,188.53008l0.37305,-7.62172l10.07256,3.31379" data-paper-data="{&quot;origPos&quot;:null}" fill="none" stroke="#000000" stroke-width="1" stroke-linecap="round"/><path d="M218.89556,200.45972l-0.74612,-5.96482l4.47669,-1.98827" data-paper-data="{&quot;origPos&quot;:null}" fill="none" stroke="#000000" stroke-width="1" stroke-linecap="round"/><path d="M242.39819,184.88491l5.59587,-4.30793l3.73057,3.31379" data-paper-data="{&quot;origPos&quot;:null}" fill="none" stroke="#000000" stroke-width="1" stroke-linecap="round"/><path d="M263.66248,186.21042l4.10364,-4.30793l1.49223,3.64517v3.64517" data-paper-data="{&quot;origPos&quot;:null}" fill="none" stroke="#000000" stroke-width="1" stroke-linecap="round"/><path d="M274.1081,194.16352l3.73057,0.33138v2.65104" data-paper-data="{&quot;origPos&quot;:null}" fill="none" stroke="#000000" stroke-width="1" stroke-linecap="round"/></g></g></svg>