<svg version="1.1" xmlns="http://www.w3.org/2000/svg" xmlns:xlink="http://www.w3.org/1999/xlink" width="74.05061" height="101.70422"><defs><radialGradient cx="257.37422" cy="110.69492" r="79.3137" gradientUnits="userSpaceOnUse" id="color-1"><stop offset="0" stop-color="#ffffff"/><stop offset="1" stop-color="#ff8080"/></radialGradient></defs><g transform="translate(-209.99883,-87.87794)"><g data-paper-data="{&quot;isPaintingLayer&quot;:true}" fill="none" fill-rule="nonzero" stroke="#000000" stroke-width="1" stroke-linecap="butt" stroke-linejoin="miter" stroke-miterlimit="10" stroke-dasharray="" stroke-dashoffset="0" font-family="none" font-weight="none" font-size="none" text-anchor="none" style="mix-blend-mode: normal"><path d="M283.54048,133.05028c0.44414,25.02838 -26.07405,47.19812 -34.95551,48.26529c-9.68519,1.16425 -37.64063,-21.93964 -38.08614,-46.96973c-0.44316,-25.02864 15.54741,-45.60972 35.71655,-45.9679c20.16904,-0.35818 36.88086,19.64387 37.32511,44.67234z" data-paper-data="{&quot;origPos&quot;:null,&quot;origRot&quot;:0}" id="ID0.790923397988081" fill="url(#color-1)"/><path d="M238.18082,185.47724l4.4794,-5.64159c0,0 3.00057,1.63849 4.92109,1.63849c1.96342,0 5.03101,-1.63849 5.03101,-1.63849l4.70659,5.87566c0,0 -6.10758,3.37085 -9.86693,3.37085c-3.98359,0 -9.27116,-3.60492 -9.27116,-3.60492z" data-paper-data="{&quot;origPos&quot;:null}" fill="#ff8080"/></g></g></svg>