<svg version="1.1" xmlns="http://www.w3.org/2000/svg" xmlns:xlink="http://www.w3.org/1999/xlink" width="107.13691" height="99.6183" viewBox="0,0,107.13691,99.6183"><defs><radialGradient cx="236.5" cy="172.5" r="51.86845" gradientUnits="userSpaceOnUse" id="color-1"><stop offset="0" stop-color="#ffda24"/><stop offset="1" stop-color="#f22c2c"/></radialGradient></defs><g transform="translate(-181.72838,-117.06667)"><g data-paper-data="{&quot;isPaintingLayer&quot;:true}" fill="none" fill-rule="nonzero" stroke="none" stroke-width="none" stroke-linecap="none" stroke-linejoin="miter" stroke-miterlimit="10" stroke-dasharray="" stroke-dashoffset="0" font-family="none" font-weight="none" font-size="none" text-anchor="none" style="mix-blend-mode: normal"><path d="M211.5,178c0,0 -30.03771,-18.5972 -28.46171,-23.13977c1.74124,-5.01887 35.46171,-3.52689 35.46171,-3.52689c0,0 11.23145,-32.83333 16.5,-32.83333c6.04907,0 17.83333,33 17.83333,33c0,0 32.78565,-2.01943 34.78195,2.44849c2.10145,4.70326 -26.94862,23.88484 -26.94862,23.88484c0,0 16.17115,32.87108 11.26696,37.16224c-4.46212,3.90436 -35.43363,-19.49558 -35.43363,-19.49558c0,0 -30.29664,23.0028 -35.28689,18.84426c-4.37606,-3.64672 10.28689,-36.34426 10.28689,-36.34426z" data-paper-data="{&quot;origPos&quot;:null}" fill="url(#color-1)" stroke="#000000" stroke-width="0" stroke-linecap="butt"/><path d="M202.79231,214c0,0 6.66953,-11.3836 11.63152,-17.97652c5.05797,-6.72044 11.33595,-12.88837 11.33595,-12.88837" data-paper-data="{&quot;origPos&quot;:null}" fill="none" stroke="#ffe489" stroke-width="2.5" stroke-linecap="round"/><path d="M247.01008,184.66667c0,0 8.06557,7.55672 11.9326,12.06957c5.10044,5.95224 12.05732,16.26377 12.05732,16.26377" data-paper-data="{&quot;origPos&quot;:null}" fill="none" stroke="#ffe489" stroke-width="2.5" stroke-linecap="round"/><path d="M183.5,155c0,0 13.83515,2.4469 23.29902,5.23039c3.15463,0.92783 9.03431,4.27942 9.03431,4.27942" data-paper-data="{&quot;origPos&quot;:null}" fill="none" stroke="#ffe489" stroke-width="2.5" stroke-linecap="round"/><path d="M235.5,155.83334v-36.33334" data-paper-data="{&quot;origPos&quot;:null}" fill="none" stroke="#ffe489" stroke-width="2.5" stroke-linecap="round"/><path d="M257,164.29033c0,0 8.11969,-3.12259 11.22105,-4.22308c8.21626,-2.91545 17.77895,-6.06725 17.77895,-6.06725" data-paper-data="{&quot;origPos&quot;:null}" fill="none" stroke="#ffe489" stroke-width="2.5" stroke-linecap="round"/><path d="M211.5,178.33333c0,0 -30.03771,-18.93053 -28.46171,-23.47311c1.74124,-5.01887 35.46171,-3.52689 35.46171,-3.52689c0,0 11.23145,-32.83333 16.5,-32.83333c6.04907,0 17.5,32 17.5,32c0,0 33.11898,-1.01943 35.11528,3.44849c2.10145,4.70326 -27.61528,23.88484 -27.61528,23.88484c0,0 16.83782,32.87108 11.93363,37.16224c-4.46212,3.90436 -35.43363,-19.49558 -35.43363,-19.49558c0,0 -30.29664,23.0028 -35.28689,18.84426c-4.37606,-3.64672 10.28689,-36.01093 10.28689,-36.01093z" data-paper-data="{&quot;origPos&quot;:null}" fill="none" stroke="#000000" stroke-width="2.5" stroke-linecap="butt"/><path d="M249,178.35715c0,0 -3.44444,3.12547 -4.92857,3.78571c-0.64225,0.28571 -3.05557,0.34029 -3.68677,0.09648c-1.27796,-0.72387 -4.88466,-2.88219 -4.88466,-2.88219c0,0 -3.02556,1.92857 -4.14286,1.92857c-0.2095,0 -2.44137,0.72153 -3.58628,0.06148c-1.15376,-0.66515 -3.77086,-2.49005 -3.77086,-2.49005" data-paper-data="{&quot;origPos&quot;:null}" fill="none" stroke="#000000" stroke-width="1.5" stroke-linecap="round"/><g data-paper-data="{&quot;origPos&quot;:null}" stroke-linecap="butt"><path d="M233.5,165.59524c0,5.26971 -3.13401,9.54167 -7,9.54167c-3.86599,0 -7,-4.27196 -7,-9.54167c0,-5.26971 3.13401,-9.54166 7,-9.54166c3.86599,0 7,4.27195 7,9.54166z" data-paper-data="{&quot;origPos&quot;:null}" fill="#f7f4ae" stroke="#000000" stroke-width="2"/><g data-paper-data="{&quot;origPos&quot;:null}" stroke="none" stroke-width="0"><path d="M230,166.51465c0,2.18704 -1.47994,3.95998 -3.30555,3.95998c-1.82561,0 -3.30555,-1.77294 -3.30555,-3.95998c0,-2.18704 1.47994,-3.95998 3.30555,-3.95998c1.82561,0 3.30555,1.77294 3.30555,3.95998z" data-paper-data="{&quot;origPos&quot;:null}" fill="#000000"/><path d="M227.47222,163.88502c0,1.31794 -0.91408,2.38634 -2.04166,2.38634c-1.12758,0 -2.04166,-1.0684 -2.04166,-2.38634c0,-1.31794 0.91409,-2.38634 2.04166,-2.38634c1.12758,0 2.04166,1.0684 2.04166,2.38634z" data-paper-data="{&quot;origPos&quot;:null}" fill="#ffffff"/><path d="M226.11111,169.59464c0,0.77761 -0.65291,1.40799 -1.45833,1.40799c-0.80542,0 -1.45834,-0.63037 -1.45834,-1.40799c0,-0.77761 0.65292,-1.40799 1.45834,-1.40799c0.80542,0 1.45833,0.63038 1.45833,1.40799z" data-paper-data="{&quot;origPos&quot;:null}" fill="#ffffff"/></g></g><g data-paper-data="{&quot;origPos&quot;:null}" stroke-linecap="butt"><path d="M252,165.09524c0,5.26971 -3.13401,9.54167 -7,9.54167c-3.86599,0 -7,-4.27196 -7,-9.54167c0,-5.26971 3.13401,-9.54166 7,-9.54166c3.86599,0 7,4.27195 7,9.54166z" data-paper-data="{&quot;origPos&quot;:null}" fill="#f7f4ae" stroke="#000000" stroke-width="2"/><g data-paper-data="{&quot;origPos&quot;:null}" stroke="none" stroke-width="0"><path d="M248.5,166.01465c0,2.18704 -1.47994,3.95998 -3.30555,3.95998c-1.82561,0 -3.30555,-1.77294 -3.30555,-3.95998c0,-2.18704 1.47994,-3.95998 3.30555,-3.95998c1.82561,0 3.30555,1.77294 3.30555,3.95998z" data-paper-data="{&quot;origPos&quot;:null}" fill="#000000"/><path d="M245.97222,163.38502c0,1.31794 -0.91408,2.38634 -2.04166,2.38634c-1.12758,0 -2.04166,-1.0684 -2.04166,-2.38634c0,-1.31794 0.91409,-2.38634 2.04166,-2.38634c1.12758,0 2.04166,1.0684 2.04166,2.38634z" data-paper-data="{&quot;origPos&quot;:null}" fill="#ffffff"/><path d="M244.61111,169.09464c0,0.77761 -0.65291,1.40799 -1.45833,1.40799c-0.80542,0 -1.45834,-0.63037 -1.45834,-1.40799c0,-0.77761 0.65292,-1.40799 1.45834,-1.40799c0.80542,0 1.45833,0.63038 1.45833,1.40799z" data-paper-data="{&quot;origPos&quot;:null}" fill="#ffffff"/></g></g><path d="M237.26021,184.37152l0.42292,-3.70804l4.68524,1.89357l-1.82292,2.79376z" data-paper-data="{&quot;origPos&quot;:null,&quot;origRot&quot;:0}" fill="#ffffff" stroke="#000000" stroke-width="1" stroke-linecap="butt"/><g data-paper-data="{&quot;origPos&quot;:null}" fill="#8bab45" stroke="#000000" stroke-width="1" stroke-linecap="round"><path d="M242.00472,124.73559c0,0 -2.63421,-2.10445 0.60125,-3.34247c0.04044,-0.14335 2.41259,-3.56084 2.41259,-3.56084c0,0 4.09476,3.91525 2.9412,6.32585c-1.96639,1.08773 -3.2394,1.10595 -3.2394,1.10595" data-paper-data="{&quot;origPos&quot;:null,&quot;origRot&quot;:0}"/><path d="M236.20473,137.04577c0,0 -1.84819,-5.81499 -0.22413,-8.31959c1.43455,-2.21235 3.41727,-4.57561 6.27408,-4.26888c2.4175,0.25956 4.91583,1.72127 5.95129,3.67594c0.71828,1.35591 -0.97353,2.69286 -2.51633,3.30291c-1.13018,0.44689 -5.47107,-0.92363 -5.47107,-0.92363c0,0 5.29476,0.81307 5.5412,-1.03324c0.23361,-1.75022 -1.86561,-3.49521 -3.78711,-3.04549c-1.87481,0.43879 -2.98756,1.64989 -3.87759,3.17763c-2.18482,3.75029 2.4253,7.80078 2.4253,7.80078" data-paper-data="{&quot;origPos&quot;:null,&quot;origRot&quot;:0}"/></g></g></g></svg>