<svg version="1.1" xmlns="http://www.w3.org/2000/svg" xmlns:xlink="http://www.w3.org/1999/xlink" width="123.15071" height="114.71181" viewBox="0,0,123.15071,114.71181"><defs><radialGradient cx="240.45603" cy="193.33503" r="46.76796" gradientUnits="userSpaceOnUse" id="color-1"><stop offset="0" stop-color="#ffdcfe"/><stop offset="1" stop-color="#e0cfe5"/></radialGradient><linearGradient x1="240.16922" y1="148.51699" x2="240.16922" y2="195.09554" gradientUnits="userSpaceOnUse" id="color-2"><stop offset="0" stop-color="#eec3d6"/><stop offset="1" stop-color="#ed3c8c"/></linearGradient><linearGradient x1="240.31255" y1="132.11982" x2="240.31255" y2="188.97013" gradientUnits="userSpaceOnUse" id="color-3"><stop offset="0" stop-color="#dedede"/><stop offset="1" stop-color="#7c7c7c"/></linearGradient></defs><g transform="translate(-178.42465,-122.6441)"><g data-paper-data="{&quot;isPaintingLayer&quot;:true}" fill-rule="nonzero" stroke-linejoin="miter" stroke-miterlimit="10" stroke-dasharray="" stroke-dashoffset="0" style="mix-blend-mode: normal"><path d="M246.67287,135.35286c0,6.14723 -2.14847,11.13055 -6.93852,11.13055c-4.79005,0 -6.93852,-4.98332 -6.93852,-11.13055c0,-6.14723 1.28116,-11.70876 6.07121,-11.70876c4.79005,0 7.80584,5.56153 7.80584,11.70876z" data-paper-data="{&quot;origPos&quot;:null}" fill="#e5d1e9" stroke="#000000" stroke-width="2" stroke-linecap="butt"/><g data-paper-data="{&quot;origPos&quot;:null,&quot;index&quot;:null}" stroke="#000000" stroke-width="1.5"><path d="M278.05745,206.54635c0,0 5.45164,-0.42056 7.89171,9.55332c0.53328,2.17981 -4.74094,6.4557 -4.74094,6.4557c0,0 -0.54344,-3.20588 -4.12862,-0.00699c-2.67032,2.38261 1.49523,2.45615 1.49523,2.45615c0,0 -0.71771,4.93159 -3.46253,6.56053c-4.34173,2.57664 -8.72904,1.53124 -8.72904,1.53124c0,0 0.83732,-2.49011 -2.52645,-1.598c-3.9635,1.05116 -1.329,2.64833 -1.329,2.64833c0,0 -7.50676,2.44362 -9.78697,1.96628c-7.77066,-1.62671 -10.16695,-8.33689 -10.16695,-8.33689z" data-paper-data="{&quot;origPos&quot;:null}" fill="#7eb73d" stroke-linecap="butt"/><path d="M271.2282,226.57261l-2.74778,-4.21326" data-paper-data="{&quot;origPos&quot;:null}" fill="none" stroke-linecap="round"/></g><g data-paper-data="{&quot;origPos&quot;:null,&quot;origRot&quot;:0,&quot;index&quot;:null}" stroke="#000000" stroke-width="1.5"><path d="M248.91216,149.6799c0,0 -1.70631,-10.23298 0.34728,-11.78648c1.16704,-0.88284 7.90518,5.54367 7.90518,5.54367c0,0 3.09614,2.09728 4.90025,1.81951c2.0251,-0.3118 3.14114,-3.83192 3.14114,-3.83192c0,0 2.45295,-0.10278 4.02297,0.20152c1.66088,0.32191 4.2558,1.40307 4.2558,1.40307c0,0 -0.74564,-1.01084 4.0185,5.3698c3.54843,4.75244 -4.74586,-8.31757 3.1144,-5.29442c7.86026,3.02314 14.68793,8.25675 16.98131,13.02346c3.62764,7.53994 5.10383,21.64811 -0.46591,23.59481c-2.46102,0.86016 -7.17052,-9.25841 -6.18295,-3.57611c1.16364,6.69539 3.88732,6.25884 4.75886,9.51479c0.87154,3.25596 0.38882,9.50343 0.38882,9.50343c0,0 -3.42788,1.10278 -3.64606,2.22721c-0.95427,4.91806 3.75252,4.57967 3.75252,4.57967c0,0 1.38918,4.67179 -6.12329,8.93909c-7.65431,4.34787 -12.97256,2.72791 -12.97256,2.72791z" data-paper-data="{&quot;origPos&quot;:null}" fill="#7eb73d" stroke-linecap="butt"/><path d="M276.52876,167.19473c0,0 4.59911,-4.54794 8.0979,-5.60844c2.30413,-0.69839 6.48226,-0.63312 6.48226,-0.63312" data-paper-data="{&quot;origPos&quot;:null}" fill="none" stroke-linecap="round"/></g><g data-paper-data="{&quot;origPos&quot;:null}" stroke="#000000" stroke-width="1.5"><path d="M237.42611,228.26902c0,0 -2.39629,6.71018 -10.16694,8.33689c-2.2802,0.47734 -9.78697,-1.96628 -9.78697,-1.96628c0,0 2.6345,-1.59716 -1.329,-2.64832c-3.36378,-0.89211 -2.52645,1.598 -2.52645,1.598c0,0 -4.3873,1.0454 -8.72904,-1.53124c-2.74482,-1.62894 -3.46253,-6.56053 -3.46253,-6.56053c0,0 4.16555,-0.07354 1.49523,-2.45615c-3.58518,-3.19889 -4.12861,0.00699 -4.12861,0.00699c0,0 -5.27422,-4.27589 -4.74094,-6.4557c2.44007,-9.97388 7.89171,-9.55332 7.89171,-9.55332z" data-paper-data="{&quot;origPos&quot;:null}" fill="#7eb73d" stroke-linecap="butt"/><path d="M208.7718,227.06561l2.74778,-4.21327" data-paper-data="{&quot;origPos&quot;:null}" fill="none" stroke-linecap="round"/></g><g data-paper-data="{&quot;origPos&quot;:null,&quot;origRot&quot;:0}" stroke="#000000" stroke-width="1.5"><path d="M202.89159,214.13192c0,0 -5.31825,1.61995 -12.97256,-2.72791c-7.51247,-4.2673 -6.12329,-8.93909 -6.12329,-8.93909c0,0 4.7068,0.33838 3.75252,-4.57968c-0.21818,-1.12444 -3.64606,-2.22721 -3.64606,-2.22721c0,0 -0.48272,-6.24748 0.38882,-9.50343c0.87154,-3.25595 3.59522,-2.8194 4.75886,-9.51479c0.98757,-5.6823 -3.72193,4.43627 -6.18295,3.57611c-5.56975,-1.9467 -4.09356,-16.05487 -0.46591,-23.59481c2.29338,-4.76671 9.12105,-10.00031 16.98131,-13.02346c7.86026,-3.02314 -0.43402,10.04687 3.1144,5.29443c4.76414,-6.38064 4.0185,-5.36981 4.0185,-5.36981c0,0 2.59492,-1.08116 4.2558,-1.40307c1.57002,-0.3043 4.02297,-0.20152 4.02297,-0.20152c0,0 1.11604,3.52012 3.14114,3.83192c1.8041,0.27777 4.90025,-1.81951 4.90025,-1.81951c0,0 4.13619,0.51201 5.30323,1.39485c2.0536,1.5535 2.94923,4.84796 2.94923,4.84796z" data-paper-data="{&quot;origPos&quot;:null}" fill="#7eb73d" stroke-linecap="butt"/><path d="M188.89108,161.44616c0,0 4.17813,-0.06527 6.48226,0.63312c3.49879,1.0605 8.0979,5.60844 8.0979,5.60844" data-paper-data="{&quot;origPos&quot;:null}" fill="none" stroke-linecap="round"/></g><path d="M287.22399,193.33503c0,20.32648 -20.93873,36.80435 -46.76796,36.80435c-25.82923,0 -46.76796,-16.47787 -46.76796,-36.80435c0,-20.32648 20.93873,-36.80435 46.76796,-36.80435c25.82923,0 46.76796,16.47787 46.76796,36.80435z" data-paper-data="{&quot;origPos&quot;:null}" fill="url(#color-1)" stroke="#000000" stroke-width="3.5" stroke-linecap="butt"/><path d="M288.56389,185.32134c0,20.32648 -22.48039,2.64341 -49.20803,2.64341c-26.72764,0 -47.58132,17.68307 -47.58132,-2.64341c0,-20.32648 21.66703,-36.80435 48.39467,-36.80435c26.72764,0 48.39467,16.47787 48.39467,36.80435z" data-paper-data="{&quot;origPos&quot;:null}" fill="url(#color-2)" stroke="#000000" stroke-width="2.5" stroke-linecap="butt"/><path d="M292.10413,186.4215c0.40668,5.57258 1.51203,8.42624 -2.8371,11.08121c-9.09656,-1.20202 -14.87275,-2.98248 -24.87077,-4.90465c-8.64517,-1.66208 -13.93276,-2.0017 -22.7331,-2.23719c-10.79146,-0.28877 -17.59838,0.71069 -28.16051,2.94236c-9.19257,1.9423 -11.01002,2.69314 -22.6613,4.7086c-2.71392,-5.04497 -1.22003,-4.78249 -1.22003,-11.18364c0,-6.40116 23.8825,-11.18364 50.83474,-11.18364c26.95224,0 51.18218,4.39279 51.64809,10.77696z" data-paper-data="{&quot;origPos&quot;:null}" fill="#ed006b" stroke="#000000" stroke-width="2.5" stroke-linecap="butt"/><g data-paper-data="{&quot;origPos&quot;:null}" fill="#ee8bb7" stroke-linecap="butt"><path d="M216.80801,157.83595c5.54431,6.12927 8.11141,12.54798 8.11141,12.54798l-24.80713,3.22752c0,0 -3.07583,-6.23335 -1.4968,-14.32082c3.77665,-8.82955 4.81114,-10.98862 7.78821,-10.9026c4.88126,-0.68678 2.03522,0.19583 10.40431,9.44791z" data-paper-data="{&quot;origPos&quot;:null}" stroke="#000000" stroke-width="2.5"/><path d="M200.59183,175.64454v-8.97861l16.62285,-4.31728l9.41431,9.76859z" data-paper-data="{&quot;origPos&quot;:null}" stroke="none" stroke-width="0"/></g><g data-paper-data="{&quot;origPos&quot;:null,&quot;index&quot;:null}" fill="#ee8bb7" stroke-linecap="butt"><path d="M274.22468,148.5079c2.97707,-0.08602 4.01157,2.07305 7.78821,10.9026c1.57902,8.08747 -1.4968,14.32082 -1.4968,14.32082l-24.80713,-3.22753c0,0 2.56711,-6.41871 8.11142,-12.54798c8.36908,-9.25208 5.52305,-10.13469 10.40431,-9.44791z" data-paper-data="{&quot;origPos&quot;:null}" stroke="#000000" stroke-width="2.5"/><path d="M253.99938,172.2371l9.41431,-9.76859l16.62286,4.31728v8.97861z" data-paper-data="{&quot;origPos&quot;:null}" stroke="none" stroke-width="0"/></g><path d="M255.90979,222.41249c0,0 0.57844,5.62177 -6.89879,5.38222c-6.92701,-0.22193 -7.35218,-4.02361 -7.35218,-4.02361c0,0 -0.45482,4.33489 -7.70963,3.92821c-7.54658,-0.42303 -8.13356,-5.28681 -8.13356,-5.28681" data-paper-data="{&quot;origPos&quot;:null}" fill="none" stroke="#000000" stroke-width="1.5" stroke-linecap="round"/><path d="M247.36956,217.93904c0,2.47062 -4.30894,4.51274 -6.10017,4.47346c-1.26307,-0.0277 -5.69349,-2.00284 -5.69349,-4.47346c0,-2.47062 0.30304,-2.84674 5.69349,-2.84674c5.39045,0 6.10017,0.37613 6.10017,2.84674z" data-paper-data="{&quot;origPos&quot;:null}" fill="#eec3d6" stroke="#000000" stroke-width="1.5" stroke-linecap="butt"/><g stroke-width="0" stroke-linecap="butt"><path d="M228.94197,208.58545c0,3.59363 -2.27595,6.50684 -5.08347,6.50684c-2.80752,0 -5.08347,-2.91322 -5.08347,-6.50684c0,-3.59363 2.27595,-6.50684 5.08347,-6.50684c2.80752,0 5.08347,2.91322 5.08347,6.50684z" data-paper-data="{&quot;origPos&quot;:null}" fill="#000000" stroke="#000000"/><path d="M224.5956,207.7721c0,1.57222 -0.81934,2.84674 -1.83005,2.84674c-1.01071,0 -1.83006,-1.27453 -1.83006,-2.84674c0,-1.57221 0.81935,-2.84674 1.83006,-2.84674c1.01071,0 1.83005,1.27453 1.83005,2.84674z" data-paper-data="{&quot;origPos&quot;:null}" fill="#ffffff" stroke="none"/></g><g data-paper-data="{&quot;origPos&quot;:null}" stroke-width="0" stroke-linecap="butt"><path d="M262.40942,208.70532c0,3.59363 -2.27595,6.50684 -5.08347,6.50684c-2.80752,0 -5.08348,-2.91322 -5.08348,-6.50684c0,-3.59363 2.27595,-6.50684 5.08348,-6.50684c2.80752,0 5.08347,2.91322 5.08347,6.50684z" data-paper-data="{&quot;origPos&quot;:null}" fill="#000000" stroke="#000000"/><path d="M258.06305,207.89196c0,1.57222 -0.81934,2.84674 -1.83005,2.84674c-1.01071,0 -1.83006,-1.27453 -1.83006,-2.84674c0,-1.57221 0.81934,-2.84674 1.83006,-2.84674c1.01071,0 1.83005,1.27453 1.83005,2.84674z" data-paper-data="{&quot;origPos&quot;:null}" fill="#ffffff" stroke="none"/></g><path d="M229.06906,199.05117c0,0 -3.06308,0.01303 -7.68162,0.90372c-3.94912,0.76159 -8.58534,4.97046 -8.58534,4.97046c0,0 -0.30415,-7.22976 7.68162,-9.0372c7.78877,-1.76285 8.58534,3.16302 8.58534,3.16302z" data-paper-data="{&quot;origPos&quot;:null}" fill="#7eb73d" stroke="#000000" stroke-width="1.5" stroke-linecap="butt"/><path d="M261.36019,196.00801c7.98577,1.80744 7.68163,9.03721 7.68163,9.03721c0,0 -4.63623,-4.20888 -8.58535,-4.97047c-4.61854,-0.89069 -7.68162,-0.90372 -7.68162,-0.90372c0,0 0.79657,-4.92587 8.58534,-3.16302z" data-paper-data="{&quot;origPos&quot;:null,&quot;index&quot;:null}" fill="#7eb73d" stroke="#000000" stroke-width="1.5" stroke-linecap="butt"/><path d="M255.45741,179.34532c0,0 0.83917,9.62481 -15.73126,9.62481c-14.57122,0 -14.03031,-8.65163 -14.03031,-8.65163c0,0 6.18282,-9.20379 5.11005,-14.15892c-1.63682,-7.56042 -14.43964,-16.3665 -11.87668,-23.29763c2.56296,-6.93113 7.6009,-10.74213 20.08742,-10.74213c14.25331,0 19.6352,1.59154 21.75793,11.28591c2.29399,10.47651 -9.72153,18.16291 -9.86107,22.75563c-0.2013,6.62546 4.54392,13.18396 4.54392,13.18396z" data-paper-data="{&quot;origPos&quot;:null}" fill="url(#color-3)" stroke="#000000" stroke-width="2.5" stroke-linecap="butt"/><path d="M249.56391,180.16416c0,2.15552 -4.2067,3.90292 -9.39592,3.90292c-5.18922,0 -9.39592,-1.7474 -9.39592,-3.90292c0,-2.15552 4.2067,-3.90292 9.39592,-3.90292c5.18922,0 9.39592,1.7474 9.39592,3.90292z" data-paper-data="{&quot;origPos&quot;:null}" fill="#000000" stroke="none" stroke-width="0" stroke-linecap="butt"/><path d="M237.55989,148.82238l-6.56665,-11.40523l12.09646,5.87542l5.87542,12.09646z" fill="#de0000" stroke="none" stroke-width="0" stroke-linecap="butt"/><path d="M231.84589,155.89605l5.87543,-12.09645l12.09645,-5.87542l-6.56665,11.40523z" data-paper-data="{&quot;index&quot;:null}" fill="#de0000" stroke="none" stroke-width="0" stroke-linecap="butt"/></g></g></svg>